999
FreeCAD v0.20 27319 (Git)
  0
SECTION
  2
HEADER
  9
$ACADVER
  1
AC1014
  9
$ACADMAINTVER
 70
     9
  9
$DWGCODEPAGE
  3
ANSI_1252
  9
$TEXTSTYLE
  7
STANDARD
  9
$DIMSTYLE
  2
STANDARD
  9
$DIMTXSTY
  7
STANDARD
  9
$CMLSTYLE
  2
STANDARD
  9
$PEXTMAX
 10
50
 20
50
 30
50
  9
$PEXTMIN
 10
0
 20
0
 30
0
  9
$HANDSEED
  5
FFFF
  0
ENDSEC
  0
SECTION
  2
CLASSES
  0
CLASS
  1
ACDBDICTIONARYWDFLT
  2
AcDbDictionaryWithDefault
  3
ObjectDBX Classes
 90
        0
280
     0
281
     0
  0
CLASS
  1
XRECORD
  2
AcDbXrecord
  3
ObjectDBX Classes
 90
        0
280
     0
281
     0
  0
CLASS
  1
LWPOLYLINE
  2
AcDbPolyline
  3
ObjectDBX Classes
 90
        0
280
     0
281
     1
  0
ENDSEC
  0
SECTION
  2
TABLES
  0
TABLE
  2
VPORT
  5
20
330
0
100
AcDbSymbolTable
 70
     1
  0
VPORT
  5
21
330
20
100
AcDbSymbolTableRecord
100
AcDbViewportTableRecord
  2
*ACTIVE
 70
     0
  0
ENDTAB
  0
TABLE
  2
LTYPE
  5
22
330
0
100
AcDbSymbolTable
 70
     1
  0
LTYPE
  5
23
330
21
100
AcDbSymbolTableRecord
100
AcDbLinetypeTableRecord
  2
BYBLOCK
 70
     0
  3

 72
    65
 73
     0
 40
0.0
  0
LTYPE
  5
24
330
21
100
AcDbSymbolTableRecord
100
AcDbLinetypeTableRecord
  2
BYLAYER
 70
     0
  3

 72
    65
 73
     0
 40
0.0
  0
LTYPE
  5
25
330
21
100
AcDbSymbolTableRecord
100
AcDbLinetypeTableRecord
  2
CONTINUOUS
 70
     0
  3
Solid line
 72
    65
 73
     0
 40
0.0
  0
ENDTAB
  0
TABLE
  2
LAYER
  5
C2F
330
0
100
AcDbSymbolTable
 70
27
  0
LAYER
  5
C30
330
C2F
100
AcDbSymbolTableRecord
100
AcDbLayerTableRecord
  2
0
 70
   0
 62
   7
  6
CONTINUOUS
  0
LAYER
  5
C31
330
C2F
100
AcDbSymbolTableRecord
100
AcDbLayerTableRecord
  2
none
 70
    0
 62
    7
  6
CONTINUOUS
  0
LAYER
  5
C32
330
C2F
100
AcDbSymbolTableRecord
100
AcDbLayerTableRecord
  2
Line
 70
    0
 62
    7
  6
CONTINUOUS
  0
LAYER
  5
C33
330
C2F
100
AcDbSymbolTableRecord
100
AcDbLayerTableRecord
  2
Array
 70
    0
 62
    7
  6
CONTINUOUS
  0
LAYER
  5
C34
330
C2F
100
AcDbSymbolTableRecord
100
AcDbLayerTableRecord
  2
Line001
 70
    0
 62
    7
  6
CONTINUOUS
  0
LAYER
  5
C35
330
C2F
100
AcDbSymbolTableRecord
100
AcDbLayerTableRecord
  2
Array001
 70
    0
 62
    7
  6
CONTINUOUS
  0
LAYER
  5
C36
330
C2F
100
AcDbSymbolTableRecord
100
AcDbLayerTableRecord
  2
Line002
 70
    0
 62
    7
  6
CONTINUOUS
  0
LAYER
  5
C37
330
C2F
100
AcDbSymbolTableRecord
100
AcDbLayerTableRecord
  2
Line003
 70
    0
 62
    7
  6
CONTINUOUS
  0
LAYER
  5
C38
330
C2F
100
AcDbSymbolTableRecord
100
AcDbLayerTableRecord
  2
Circle
 70
    0
 62
    7
  6
CONTINUOUS
  0
LAYER
  5
C39
330
C2F
100
AcDbSymbolTableRecord
100
AcDbLayerTableRecord
  2
Arc
 70
    0
 62
    7
  6
CONTINUOUS
  0
LAYER
  5
C3A
330
C2F
100
AcDbSymbolTableRecord
100
AcDbLayerTableRecord
  2
Rectangle
 70
    0
 62
    7
  6
CONTINUOUS
  0
LAYER
  5
C3B
330
C2F
100
AcDbSymbolTableRecord
100
AcDbLayerTableRecord
  2
ShapeString001
 70
    0
 62
    7
  6
CONTINUOUS
  0
LAYER
  5
C3C
330
C2F
100
AcDbSymbolTableRecord
100
AcDbLayerTableRecord
  2
ShapeString002
 70
    0
 62
    7
  6
CONTINUOUS
  0
LAYER
  5
C3D
330
C2F
100
AcDbSymbolTableRecord
100
AcDbLayerTableRecord
  2
ShapeString003
 70
    0
 62
    7
  6
CONTINUOUS
  0
LAYER
  5
C3E
330
C2F
100
AcDbSymbolTableRecord
100
AcDbLayerTableRecord
  2
ShapeString004
 70
    0
 62
    7
  6
CONTINUOUS
  0
LAYER
  5
C3F
330
C2F
100
AcDbSymbolTableRecord
100
AcDbLayerTableRecord
  2
ShapeString005
 70
    0
 62
    7
  6
CONTINUOUS
  0
LAYER
  5
C40
330
C2F
100
AcDbSymbolTableRecord
100
AcDbLayerTableRecord
  2
ShapeString006
 70
    0
 62
    7
  6
CONTINUOUS
  0
LAYER
  5
C41
330
C2F
100
AcDbSymbolTableRecord
100
AcDbLayerTableRecord
  2
ShapeString007
 70
    0
 62
    7
  6
CONTINUOUS
  0
LAYER
  5
C42
330
C2F
100
AcDbSymbolTableRecord
100
AcDbLayerTableRecord
  2
ShapeString008
 70
    0
 62
    7
  6
CONTINUOUS
  0
LAYER
  5
C43
330
C2F
100
AcDbSymbolTableRecord
100
AcDbLayerTableRecord
  2
ShapeString009
 70
    0
 62
    7
  6
CONTINUOUS
  0
LAYER
  5
C44
330
C2F
100
AcDbSymbolTableRecord
100
AcDbLayerTableRecord
  2
ShapeString010
 70
    0
 62
    7
  6
CONTINUOUS
  0
LAYER
  5
C45
330
C2F
100
AcDbSymbolTableRecord
100
AcDbLayerTableRecord
  2
ShapeString011
 70
    0
 62
    7
  6
CONTINUOUS
  0
LAYER
  5
C46
330
C2F
100
AcDbSymbolTableRecord
100
AcDbLayerTableRecord
  2
Line004
 70
    0
 62
    7
  6
CONTINUOUS
  0
LAYER
  5
C47
330
C2F
100
AcDbSymbolTableRecord
100
AcDbLayerTableRecord
  2
Array002
 70
    0
 62
    7
  6
CONTINUOUS
  0
LAYER
  5
C48
330
C2F
100
AcDbSymbolTableRecord
100
AcDbLayerTableRecord
  2
Arc001
 70
    0
 62
    7
  6
CONTINUOUS
  0
LAYER
  5
C49
330
C2F
100
AcDbSymbolTableRecord
100
AcDbLayerTableRecord
  2
Line005
 70
    0
 62
    7
  6
CONTINUOUS
  0
LAYER
  5
C4A
330
C2F
100
AcDbSymbolTableRecord
100
AcDbLayerTableRecord
  2
Line006
 70
    0
 62
    7
  6
CONTINUOUS
  0
ENDTAB
  0
TABLE
  2
STYLE
  5
70
330
0
100
AcDbSymbolTable
 70
     2
  0
STYLE
  5
71
330
70
100
AcDbSymbolTableRecord
100
AcDbTextStyleTableRecord
  2
STANDARD
 70
     0
 40
0.0
 41
1.0
 50
0.0
 71
     0
 42
2.5
  3
arial.ttf
  4

  0
STYLE
  5
72
330
70
100
AcDbSymbolTableRecord
100
AcDbTextStyleTableRecord
  2
ANNOTATIVE
 70
     0
 40
0.0
 41
1.0
 50
0.0
 71
     0
 42
2.5
  3
arial.ttf
  4

  0
ENDTAB
  0
TABLE
  2
VIEW
  5
73
330
0
100
AcDbSymbolTable
 70
     0
  0
ENDTAB
  0
TABLE
  2
UCS
  5
74
330
0
100
AcDbSymbolTable
 70
     0
  0
ENDTAB
  0
TABLE
  2
APPID
  5
75
330
0
100
AcDbSymbolTable
 70
     2
  0
APPID
  5
76
330
75
100
AcDbSymbolTableRecord
100
AcDbRegAppTableRecord
  2
ACAD
 70
     0
  0
APPID
  5
77
330
75
100
AcDbSymbolTableRecord
100
AcDbRegAppTableRecord
  2
ACADANNOTATIVE
 70
     0
  0
ENDTAB
  0
TABLE
  2
DIMSTYLE
  5
78
330
0
100
AcDbSymbolTable
 70
     2
  0
DIMSTYLE
105
79
330
78
100
AcDbSymbolTableRecord
100
AcDbDimStyleTableRecord
  2
STANDARD
 70
     0
  3

  4

  5

  6

  7

 40
0.0
 41
2.5
 42
0.625
 43
3.75
 44
1.25
 45
0.0
 46
0.0
 47
0.0
 48
0.0
140
2.5
141
2.5
142
0.0
143
0.03937007874016
144
1.0
145
0.0
146
1.0
147
0.625
 71
     0
 72
     0
 73
     0
 74
     0
 75
     0
 76
     0
 77
     1
 78
     8
170
     0
171
     3
172
     1
173
     0
174
     0
175
     0
176
     0
177
     0
178
     0
270
     2
271
     2
272
     2
273
     2
274
     3
340
71
275
     0
280
     0
281
     0
282
     0
283
     0
284
     8
285
     0
286
     0
287
     3
288
     0
  0
ENDTAB
  0
TABLE
  2
BLOCK_RECORD
  5
A01
330
0
100
AcDbSymbolTable
  70
5
  0
BLOCK_RECORD
  5
A02
330
A01
100
AcDbSymbolTableRecord
100
AcDbBlockTableRecord
  2
*MODEL_SPACE
  0
BLOCK_RECORD
  5
A03
330
A01
100
AcDbSymbolTableRecord
100
AcDbBlockTableRecord
  2
*PAPER_SPACE
  0
ENDTAB
  0
ENDSEC
  0
SECTION
  2
BLOCKS
  0
BLOCK
  5
A04
330
A02
100
AcDbEntity
  8
0
100
AcDbBlockBegin
  2
*MODEL_SPACE
 70
   0
 10
0
 20
0
 30
0
  3
*MODEL_SPACE
  1
 
  0
ENDBLK
  5
A05
330
A02
100
AcDbEntity
  8
0
100
AcDbBlockEnd
  0
BLOCK
  5
A06
330
A03
100
AcDbEntity
 67
1
  8
0
100
AcDbBlockBegin
  2
*PAPER_SPACE
 70
   0
 10
0
 20
0
 30
0
  3
*PAPER_SPACE
  1
 
  0
ENDBLK
  5
A07
330
A03
100
AcDbEntity
 67
    1
  8
0
100
AcDbBlockEnd
  0
ENDSEC
  0
SECTION
  2
ENTITIES
  0
LINE
  5
A08
330
A02
100
AcDbEntity
  8
Line
100
AcDbLine
 10
-500
 20
75
 30
0
 11
-500
 21
100
 31
0
  0
LINE
  5
A09
330
A02
100
AcDbEntity
  8
Array
100
AcDbLine
 10
-500
 20
75
 30
0
 11
-500
 21
100
 31
0
  0
LINE
  5
A0A
330
A02
100
AcDbEntity
  8
Array
100
AcDbLine
 10
-449.885
 20
72.812
 30
0
 11
-447.707
 21
97.7168
 31
0
  0
LINE
  5
A0B
330
A02
100
AcDbEntity
  8
Array
100
AcDbLine
 10
-400.152
 20
66.2645
 30
0
 11
-395.811
 21
90.8847
 31
0
  0
LINE
  5
A0C
330
A02
100
AcDbEntity
  8
Array
100
AcDbLine
 10
-351.179
 20
55.4074
 30
0
 11
-344.709
 21
79.5555
 31
0
  0
LINE
  5
A0D
330
A02
100
AcDbEntity
  8
Array
100
AcDbLine
 10
-303.338
 20
40.3233
 30
0
 11
-294.788
 21
63.8156
 31
0
  0
LINE
  5
A0E
330
A02
100
AcDbEntity
  8
Array
100
AcDbLine
 10
-256.994
 20
21.127
 30
0
 11
-246.429
 21
43.7847
 31
0
  0
LINE
  5
A0F
330
A02
100
AcDbEntity
  8
Array
100
AcDbLine
 10
-212.5
 20
-2.03539
 30
0
 11
-200
 21
19.6152
 31
0
  0
LINE
  5
A10
330
A02
100
AcDbEntity
  8
Array
100
AcDbLine
 10
-170.194
 20
-28.9876
 30
0
 11
-155.854
 21
-8.50877
 31
0
  0
LINE
  5
A11
330
A02
100
AcDbEntity
  8
Array
100
AcDbLine
 10
-130.397
 20
-59.5244
 30
0
 11
-114.327
 21
-40.3733
 31
0
  0
LINE
  5
A12
330
A02
100
AcDbEntity
  8
Array
100
AcDbLine
 10
-93.4136
 20
-93.4136
 30
0
 11
-75.7359
 21
-75.7359
 31
0
  0
LINE
  5
A13
330
A02
100
AcDbEntity
  8
Array
100
AcDbLine
 10
-59.5244
 20
-130.397
 30
0
 11
-40.3733
 21
-114.327
 31
0
  0
LINE
  5
A14
330
A02
100
AcDbEntity
  8
Line001
100
AcDbLine
 10
-500
 20
50
 30
0
 11
-500
 21
75
 31
0
  0
LINE
  5
A15
330
A02
100
AcDbEntity
  8
Array001
100
AcDbLine
 10
-500
 20
50
 30
0
 11
-500
 21
75
 31
0
  0
LINE
  5
A16
330
A02
100
AcDbEntity
  8
Array001
100
AcDbLine
 10
-490.401
 20
49.9162
 30
0
 11
-489.965
 21
74.9124
 31
0
  0
LINE
  5
A17
330
A02
100
AcDbEntity
  8
Array001
100
AcDbLine
 10
-480.805
 20
49.665
 30
0
 11
-479.933
 21
74.6497
 31
0
  0
LINE
  5
A18
330
A02
100
AcDbEntity
  8
Array001
100
AcDbLine
 10
-471.215
 20
49.2462
 30
0
 11
-469.907
 21
74.212
 31
0
  0
LINE
  5
A19
330
A02
100
AcDbEntity
  8
Array001
100
AcDbLine
 10
-461.634
 20
48.6602
 30
0
 11
-459.89
 21
73.5993
 31
0
  0
LINE
  5
A1A
330
A02
100
AcDbEntity
  8
Array001
100
AcDbLine
 10
-452.064
 20
47.9071
 30
0
 11
-449.885
 21
72.812
 31
0
  0
LINE
  5
A1B
330
A02
100
AcDbEntity
  8
Array001
100
AcDbLine
 10
-442.509
 20
46.987
 30
0
 11
-439.896
 21
71.8501
 31
0
  0
LINE
  5
A1C
330
A02
100
AcDbEntity
  8
Array001
100
AcDbLine
 10
-432.972
 20
45.9004
 30
0
 11
-429.925
 21
70.714
 31
0
  0
LINE
  5
A1D
330
A02
100
AcDbEntity
  8
Array001
100
AcDbLine
 10
-423.455
 20
44.6474
 30
0
 11
-419.975
 21
69.4041
 31
0
  0
LINE
  5
A1E
330
A02
100
AcDbEntity
  8
Array001
100
AcDbLine
 10
-413.961
 20
43.2286
 30
0
 11
-410.05
 21
67.9208
 31
0
  0
LINE
  5
A1F
330
A02
100
AcDbEntity
  8
Array001
100
AcDbLine
 10
-404.494
 20
41.6443
 30
0
 11
-400.152
 21
66.2645
 31
0
  0
LINE
  5
A20
330
A02
100
AcDbEntity
  8
Array001
100
AcDbLine
 10
-395.055
 20
39.895
 30
0
 11
-390.285
 21
64.4356
 31
0
  0
LINE
  5
A21
330
A02
100
AcDbEntity
  8
Array001
100
AcDbLine
 10
-385.649
 20
37.9812
 30
0
 11
-380.451
 21
62.4349
 31
0
  0
LINE
  5
A22
330
A02
100
AcDbEntity
  8
Array001
100
AcDbLine
 10
-376.277
 20
35.9035
 30
0
 11
-370.653
 21
60.2628
 31
0
  0
LINE
  5
A23
330
A02
100
AcDbEntity
  8
Array001
100
AcDbLine
 10
-366.943
 20
33.6626
 30
0
 11
-360.895
 21
57.92
 31
0
  0
LINE
  5
A24
330
A02
100
AcDbEntity
  8
Array001
100
AcDbLine
 10
-357.65
 20
31.2592
 30
0
 11
-351.179
 21
55.4074
 31
0
  0
LINE
  5
A25
330
A02
100
AcDbEntity
  8
Array001
100
AcDbLine
 10
-348.399
 20
28.6939
 30
0
 11
-341.509
 21
52.7255
 31
0
  0
LINE
  5
A26
330
A02
100
AcDbEntity
  8
Array001
100
AcDbLine
 10
-339.196
 20
25.9676
 30
0
 11
-331.886
 21
49.8752
 31
0
  0
LINE
  5
A27
330
A02
100
AcDbEntity
  8
Array001
100
AcDbLine
 10
-330.041
 20
23.0811
 30
0
 11
-322.315
 21
46.8575
 31
0
  0
LINE
  5
A28
330
A02
100
AcDbEntity
  8
Array001
100
AcDbLine
 10
-320.938
 20
20.0352
 30
0
 11
-312.798
 21
43.6732
 31
0
  0
LINE
  5
A29
330
A02
100
AcDbEntity
  8
Array001
100
AcDbLine
 10
-311.889
 20
16.8309
 30
0
 11
-303.338
 21
40.3233
 31
0
  0
LINE
  5
A2A
330
A02
100
AcDbEntity
  8
Array001
100
AcDbLine
 10
-302.898
 20
13.4692
 30
0
 11
-293.938
 21
36.8087
 31
0
  0
LINE
  5
A2B
330
A02
100
AcDbEntity
  8
Array001
100
AcDbLine
 10
-293.966
 20
9.95112
 30
0
 11
-284.601
 21
33.1307
 31
0
  0
LINE
  5
A2C
330
A02
100
AcDbEntity
  8
Array001
100
AcDbLine
 10
-285.098
 20
6.27767
 30
0
 11
-275.33
 21
29.2903
 31
0
  0
LINE
  5
A2D
330
A02
100
AcDbEntity
  8
Array001
100
AcDbLine
 10
-276.295
 20
2.45
 30
0
 11
-266.126
 21
25.2886
 31
0
  0
LINE
  5
A2E
330
A02
100
AcDbEntity
  8
Array001
100
AcDbLine
 10
-267.56
 20
-1.53072
 30
0
 11
-256.994
 21
21.127
 31
0
  0
LINE
  5
A2F
330
A02
100
AcDbEntity
  8
Array001
100
AcDbLine
 10
-258.896
 20
-5.66327
 30
0
 11
-247.937
 21
16.8066
 31
0
  0
LINE
  5
A30
330
A02
100
AcDbEntity
  8
Array001
100
AcDbLine
 10
-250.305
 20
-9.94641
 30
0
 11
-238.955
 21
12.3288
 31
0
  0
LINE
  5
A31
330
A02
100
AcDbEntity
  8
Array001
100
AcDbLine
 10
-241.791
 20
-14.3788
 30
0
 11
-230.054
 21
7.69487
 31
0
  0
LINE
  5
A32
330
A02
100
AcDbEntity
  8
Array001
100
AcDbLine
 10
-233.355
 20
-18.9592
 30
0
 11
-221.234
 21
2.90633
 31
0
  0
LINE
  5
A33
330
A02
100
AcDbEntity
  8
Array001
100
AcDbLine
 10
-225
 20
-23.686
 30
0
 11
-212.5
 21
-2.03539
 31
0
  0
LINE
  5
A34
330
A02
100
AcDbEntity
  8
Array001
100
AcDbLine
 10
-216.729
 20
-28.558
 30
0
 11
-203.853
 21
-7.1288
 31
0
  0
LINE
  5
A35
330
A02
100
AcDbEntity
  8
Array001
100
AcDbLine
 10
-208.544
 20
-33.5735
 30
0
 11
-195.296
 21
-12.3723
 31
0
  0
LINE
  5
A36
330
A02
100
AcDbEntity
  8
Array001
100
AcDbLine
 10
-200.449
 20
-38.7312
 30
0
 11
-186.833
 21
-17.7644
 31
0
  0
LINE
  5
A37
330
A02
100
AcDbEntity
  8
Array001
100
AcDbLine
 10
-192.444
 20
-44.0293
 30
0
 11
-178.464
 21
-23.3034
 31
0
  0
LINE
  5
A38
330
A02
100
AcDbEntity
  8
Array001
100
AcDbLine
 10
-184.533
 20
-49.4664
 30
0
 11
-170.194
 21
-28.9876
 31
0
  0
LINE
  5
A39
330
A02
100
AcDbEntity
  8
Array001
100
AcDbLine
 10
-176.718
 20
-55.0407
 30
0
 11
-162.023
 21
-34.8152
 31
0
  0
LINE
  5
A3A
330
A02
100
AcDbEntity
  8
Array001
100
AcDbLine
 10
-169.002
 20
-60.7505
 30
0
 11
-153.956
 21
-40.7846
 31
0
  0
LINE
  5
A3B
330
A02
100
AcDbEntity
  8
Array001
100
AcDbLine
 10
-161.386
 20
-66.5941
 30
0
 11
-145.995
 21
-46.8938
 31
0
  0
LINE
  5
A3C
330
A02
100
AcDbEntity
  8
Array001
100
AcDbLine
 10
-153.874
 20
-72.5697
 30
0
 11
-138.141
 21
-53.1411
 31
0
  0
LINE
  5
A3D
330
A02
100
AcDbEntity
  8
Array001
100
AcDbLine
 10
-146.467
 20
-78.6756
 30
0
 11
-130.397
 21
-59.5244
 31
0
  0
LINE
  5
A3E
330
A02
100
AcDbEntity
  8
Array001
100
AcDbLine
 10
-139.168
 20
-84.9097
 30
0
 11
-122.766
 21
-66.042
 31
0
  0
LINE
  5
A3F
330
A02
100
AcDbEntity
  8
Array001
100
AcDbLine
 10
-131.978
 20
-91.2703
 30
0
 11
-115.25
 21
-72.6917
 31
0
  0
LINE
  5
A40
330
A02
100
AcDbEntity
  8
Array001
100
AcDbLine
 10
-124.901
 20
-97.7555
 30
0
 11
-107.851
 21
-79.4716
 31
0
  0
LINE
  5
A41
330
A02
100
AcDbEntity
  8
Array001
100
AcDbLine
 10
-117.938
 20
-104.363
 30
0
 11
-100.571
 21
-86.3796
 31
0
  0
LINE
  5
A42
330
A02
100
AcDbEntity
  8
Array001
100
AcDbLine
 10
-111.091
 20
-111.091
 30
0
 11
-93.4136
 21
-93.4136
 31
0
  0
LINE
  5
A43
330
A02
100
AcDbEntity
  8
Array001
100
AcDbLine
 10
-104.363
 20
-117.938
 30
0
 11
-86.3796
 21
-100.571
 31
0
  0
LINE
  5
A44
330
A02
100
AcDbEntity
  8
Array001
100
AcDbLine
 10
-97.7555
 20
-124.901
 30
0
 11
-79.4716
 21
-107.851
 31
0
  0
LINE
  5
A45
330
A02
100
AcDbEntity
  8
Array001
100
AcDbLine
 10
-91.2703
 20
-131.978
 30
0
 11
-72.6917
 21
-115.25
 31
0
  0
LINE
  5
A46
330
A02
100
AcDbEntity
  8
Array001
100
AcDbLine
 10
-84.9097
 20
-139.168
 30
0
 11
-66.042
 21
-122.766
 31
0
  0
LINE
  5
A47
330
A02
100
AcDbEntity
  8
Array001
100
AcDbLine
 10
-78.6756
 20
-146.467
 30
0
 11
-59.5244
 21
-130.397
 31
0
  0
LINE
  5
A48
330
A02
100
AcDbEntity
  8
Line002
100
AcDbLine
 10
-500
 20
-450
 30
0
 11
-500
 21
-550
 31
0
  0
LINE
  5
A49
330
A02
100
AcDbEntity
  8
Line003
100
AcDbLine
 10
-550
 20
-500
 30
0
 11
-450
 21
-500
 31
0
  0
CIRCLE
  5
A4A
330
A02
100
AcDbEntity
  8
Circle
100
AcDbCircle
 10
-500
 20
-500
 40
5
  0
ARC
  5
A4B
330
A02
100
AcDbEntity
  8
Arc
100
AcDbCircle
 10
-500
 20
-500
 30
0
 40
490
100
AcDbArc
 50
35
 51
95
  0
LINE
  5
A4C
330
A02
100
AcDbEntity
  8
Rectangle
100
AcDbLine
 10
-600
 20
-600
 30
0
 11
200
 21
-600
 31
0
  0
LINE
  5
A4D
330
A02
100
AcDbEntity
  8
Rectangle
100
AcDbLine
 10
200
 20
-600
 30
0
 11
200
 21
200
 31
0
  0
LINE
  5
A4E
330
A02
100
AcDbEntity
  8
Rectangle
100
AcDbLine
 10
200
 20
200
 30
0
 11
-600
 21
200
 31
0
  0
LINE
  5
A4F
330
A02
100
AcDbEntity
  8
Rectangle
100
AcDbLine
 10
-600
 20
200
 30
0
 11
-600
 21
-600
 31
0
  0
SPLINE
  5
A50
330
A02
100
AcDbEntity
  8
ShapeString001
100
AcDbSpline
210
0
220
0
230
1
 70
8
 71
2
 72
6
 73
3
 74
0
 40
0
 40
0
 40
0
 40
1
 40
1
 40
1
 10
-500.612
 20
103.297
 30
0
 10
-505.369
 20
103.297
 30
0
 10
-507.953
 20
105.31
 30
0
  0
SPLINE
  5
A51
330
A02
100
AcDbEntity
  8
ShapeString001
100
AcDbSpline
210
0
220
0
230
1
 70
8
 71
2
 72
6
 73
3
 74
0
 40
0
 40
0
 40
0
 40
1
 40
1
 40
1
 10
-493.255
 20
105.31
 30
0
 10
-495.839
 20
103.297
 30
0
 10
-500.612
 20
103.297
 30
0
  0
SPLINE
  5
A52
330
A02
100
AcDbEntity
  8
ShapeString001
100
AcDbSpline
210
0
220
0
230
1
 70
8
 71
2
 72
6
 73
3
 74
0
 40
0
 40
0
 40
0
 40
1
 40
1
 40
1
 10
-490.671
 20
111.023
 30
0
 10
-490.671
 20
107.324
 30
0
 10
-493.255
 20
105.31
 30
0
  0
SPLINE
  5
A53
330
A02
100
AcDbEntity
  8
ShapeString001
100
AcDbSpline
210
0
220
0
230
1
 70
8
 71
2
 72
6
 73
3
 74
0
 40
0
 40
0
 40
0
 40
1
 40
1
 40
1
 10
-493.255
 20
116.753
 30
0
 10
-490.671
 20
114.74
 30
0
 10
-490.671
 20
111.023
 30
0
  0
SPLINE
  5
A54
330
A02
100
AcDbEntity
  8
ShapeString001
100
AcDbSpline
210
0
220
0
230
1
 70
8
 71
2
 72
6
 73
3
 74
0
 40
0
 40
0
 40
0
 40
1
 40
1
 40
1
 10
-500.612
 20
118.767
 30
0
 10
-495.839
 20
118.767
 30
0
 10
-493.255
 20
116.753
 30
0
  0
SPLINE
  5
A55
330
A02
100
AcDbEntity
  8
ShapeString001
100
AcDbSpline
210
0
220
0
230
1
 70
8
 71
2
 72
6
 73
3
 74
0
 40
0
 40
0
 40
0
 40
1
 40
1
 40
1
 10
-507.953
 20
116.753
 30
0
 10
-505.369
 20
118.767
 30
0
 10
-500.612
 20
118.767
 30
0
  0
SPLINE
  5
A56
330
A02
100
AcDbEntity
  8
ShapeString001
100
AcDbSpline
210
0
220
0
230
1
 70
8
 71
2
 72
6
 73
3
 74
0
 40
0
 40
0
 40
0
 40
1
 40
1
 40
1
 10
-510.537
 20
111.023
 30
0
 10
-510.537
 20
114.74
 30
0
 10
-507.953
 20
116.753
 30
0
  0
SPLINE
  5
A57
330
A02
100
AcDbEntity
  8
ShapeString001
100
AcDbSpline
210
0
220
0
230
1
 70
8
 71
2
 72
6
 73
3
 74
0
 40
0
 40
0
 40
0
 40
1
 40
1
 40
1
 10
-507.953
 20
105.31
 30
0
 10
-510.537
 20
107.324
 30
0
 10
-510.537
 20
111.023
 30
0
  0
SPLINE
  5
A58
330
A02
100
AcDbEntity
  8
ShapeString001
100
AcDbSpline
210
0
220
0
230
1
 70
8
 71
2
 72
6
 73
3
 74
0
 40
0
 40
0
 40
0
 40
1
 40
1
 40
1
 10
-500.562
 20
108.146
 30
0
 10
-496.896
 20
108.146
 30
0
 10
-495.394
 20
108.809
 30
0
  0
SPLINE
  5
A59
330
A02
100
AcDbEntity
  8
ShapeString001
100
AcDbSpline
210
0
220
0
230
1
 70
8
 71
2
 72
6
 73
3
 74
0
 40
0
 40
0
 40
0
 40
1
 40
1
 40
1
 10
-505.797
 20
108.817
 30
0
 10
-504.27
 20
108.146
 30
0
 10
-500.562
 20
108.146
 30
0
  0
SPLINE
  5
A5A
330
A02
100
AcDbEntity
  8
ShapeString001
100
AcDbSpline
210
0
220
0
230
1
 70
8
 71
2
 72
6
 73
3
 74
0
 40
0
 40
0
 40
0
 40
1
 40
1
 40
1
 10
-507.315
 20
111.023
 30
0
 10
-507.315
 20
109.48
 30
0
 10
-505.797
 20
108.817
 30
0
  0
SPLINE
  5
A5B
330
A02
100
AcDbEntity
  8
ShapeString001
100
AcDbSpline
210
0
220
0
230
1
 70
8
 71
2
 72
6
 73
3
 74
0
 40
0
 40
0
 40
0
 40
1
 40
1
 40
1
 10
-505.797
 20
113.255
 30
0
 10
-507.315
 20
112.584
 30
0
 10
-507.315
 20
111.023
 30
0
  0
SPLINE
  5
A5C
330
A02
100
AcDbEntity
  8
ShapeString001
100
AcDbSpline
210
0
220
0
230
1
 70
8
 71
2
 72
6
 73
3
 74
0
 40
0
 40
0
 40
0
 40
1
 40
1
 40
1
 10
-500.562
 20
113.918
 30
0
 10
-504.27
 20
113.918
 30
0
 10
-505.797
 20
113.255
 30
0
  0
SPLINE
  5
A5D
330
A02
100
AcDbEntity
  8
ShapeString001
100
AcDbSpline
210
0
220
0
230
1
 70
8
 71
2
 72
6
 73
3
 74
0
 40
0
 40
0
 40
0
 40
1
 40
1
 40
1
 10
-495.394
 20
113.255
 30
0
 10
-496.896
 20
113.918
 30
0
 10
-500.562
 20
113.918
 30
0
  0
SPLINE
  5
A5E
330
A02
100
AcDbEntity
  8
ShapeString001
100
AcDbSpline
210
0
220
0
230
1
 70
8
 71
2
 72
6
 73
3
 74
0
 40
0
 40
0
 40
0
 40
1
 40
1
 40
1
 10
-493.893
 20
111.023
 30
0
 10
-493.893
 20
112.584
 30
0
 10
-495.394
 20
113.255
 30
0
  0
SPLINE
  5
A5F
330
A02
100
AcDbEntity
  8
ShapeString001
100
AcDbSpline
210
0
220
0
230
1
 70
8
 71
2
 72
6
 73
3
 74
0
 40
0
 40
0
 40
0
 40
1
 40
1
 40
1
 10
-495.394
 20
108.809
 30
0
 10
-493.893
 20
109.463
 30
0
 10
-493.893
 20
111.023
 30
0
  0
LINE
  5
A60
330
A02
100
AcDbEntity
  8
ShapeString002
100
AcDbLine
 10
-436.518
 20
113.638
 30
0
 11
-437.567
 21
101.645
 31
0
  0
LINE
  5
A61
330
A02
100
AcDbEntity
  8
ShapeString002
100
AcDbLine
 10
-447.215
 20
114.574
 30
0
 11
-436.518
 21
113.638
 31
0
  0
SPLINE
  5
A62
330
A02
100
AcDbEntity
  8
ShapeString002
100
AcDbSpline
210
0
220
0
230
1
 70
8
 71
2
 72
6
 73
3
 74
0
 40
0
 40
0
 40
0
 40
1
 40
1
 40
1
 10
-446.635
 20
111.971
 30
0
 10
-446.791
 20
113.172
 30
0
 10
-447.215
 20
114.574
 30
0
  0
SPLINE
  5
A63
330
A02
100
AcDbEntity
  8
ShapeString002
100
AcDbSpline
210
0
220
0
230
1
 70
8
 71
2
 72
6
 73
3
 74
0
 40
0
 40
0
 40
0
 40
1
 40
1
 40
1
 10
-446.562
 20
109.725
 30
0
 10
-446.47
 20
110.769
 30
0
 10
-446.635
 20
111.971
 30
0
  0
SPLINE
  5
A64
330
A02
100
AcDbEntity
  8
ShapeString002
100
AcDbSpline
210
0
220
0
230
1
 70
8
 71
2
 72
6
 73
3
 74
0
 40
0
 40
0
 40
0
 40
1
 40
1
 40
1
 10
-447.664
 20
107.042
 30
0
 10
-446.715
 20
107.97
 30
0
 10
-446.562
 20
109.725
 30
0
  0
SPLINE
  5
A65
330
A02
100
AcDbEntity
  8
ShapeString002
100
AcDbSpline
210
0
220
0
230
1
 70
8
 71
2
 72
6
 73
3
 74
0
 40
0
 40
0
 40
0
 40
1
 40
1
 40
1
 10
-450.101
 20
106.236
 30
0
 10
-448.613
 20
106.106
 30
0
 10
-447.664
 20
107.042
 30
0
  0
SPLINE
  5
A66
330
A02
100
AcDbEntity
  8
ShapeString002
100
AcDbSpline
210
0
220
0
230
1
 70
8
 71
2
 72
6
 73
3
 74
0
 40
0
 40
0
 40
0
 40
1
 40
1
 40
1
 10
-452.361
 20
107.453
 30
0
 10
-451.58
 20
106.366
 30
0
 10
-450.101
 20
106.236
 30
0
  0
SPLINE
  5
A67
330
A02
100
AcDbEntity
  8
ShapeString002
100
AcDbSpline
210
0
220
0
230
1
 70
8
 71
2
 72
6
 73
3
 74
0
 40
0
 40
0
 40
0
 40
1
 40
1
 40
1
 10
-452.979
 20
110.295
 30
0
 10
-453.133
 20
108.54
 30
0
 10
-452.361
 20
107.453
 30
0
  0
SPLINE
  5
A68
330
A02
100
AcDbEntity
  8
ShapeString002
100
AcDbSpline
210
0
220
0
230
1
 70
8
 71
2
 72
6
 73
3
 74
0
 40
0
 40
0
 40
0
 40
1
 40
1
 40
1
 10
-452.352
 20
112.85
 30
0
 10
-452.873
 20
111.506
 30
0
 10
-452.979
 20
110.295
 30
0
  0
SPLINE
  5
A69
330
A02
100
AcDbEntity
  8
ShapeString002
100
AcDbSpline
210
0
220
0
230
1
 70
8
 71
2
 72
6
 73
3
 74
0
 40
0
 40
0
 40
0
 40
1
 40
1
 40
1
 10
-450.894
 20
115.645
 30
0
 10
-451.83
 20
114.186
 30
0
 10
-452.352
 20
112.85
 30
0
  0
LINE
  5
A6A
330
A02
100
AcDbEntity
  8
ShapeString002
100
AcDbLine
 10
-454.638
 20
115.973
 30
0
 11
-450.894
 21
115.645
 31
0
  0
SPLINE
  5
A6B
330
A02
100
AcDbEntity
  8
ShapeString002
100
AcDbSpline
210
0
220
0
230
1
 70
8
 71
2
 72
6
 73
3
 74
0
 40
0
 40
0
 40
0
 40
1
 40
1
 40
1
 10
-455.712
 20
112.942
 30
0
 10
-455.317
 20
114.474
 30
0
 10
-454.638
 20
115.973
 30
0
  0
SPLINE
  5
A6C
330
A02
100
AcDbEntity
  8
ShapeString002
100
AcDbSpline
210
0
220
0
230
1
 70
8
 71
2
 72
6
 73
3
 74
0
 40
0
 40
0
 40
0
 40
1
 40
1
 40
1
 10
-456.256
 20
109.806
 30
0
 10
-456.116
 20
111.403
 30
0
 10
-455.712
 20
112.942
 30
0
  0
SPLINE
  5
A6D
330
A02
100
AcDbEntity
  8
ShapeString002
100
AcDbSpline
210
0
220
0
230
1
 70
8
 71
2
 72
6
 73
3
 74
0
 40
0
 40
0
 40
0
 40
1
 40
1
 40
1
 10
-455.063
 20
103.9
 30
0
 10
-456.578
 20
106.121
 30
0
 10
-456.256
 20
109.806
 30
0
  0
SPLINE
  5
A6E
330
A02
100
AcDbEntity
  8
ShapeString002
100
AcDbSpline
210
0
220
0
230
1
 70
8
 71
2
 72
6
 73
3
 74
0
 40
0
 40
0
 40
0
 40
1
 40
1
 40
1
 10
-450.531
 20
101.415
 30
0
 10
-453.539
 20
101.678
 30
0
 10
-455.063
 20
103.9
 30
0
  0
SPLINE
  5
A6F
330
A02
100
AcDbEntity
  8
ShapeString002
100
AcDbSpline
210
0
220
0
230
1
 70
8
 71
2
 72
6
 73
3
 74
0
 40
0
 40
0
 40
0
 40
1
 40
1
 40
1
 10
-445.634
 20
102.906
 30
0
 10
-447.497
 20
101.149
 30
0
 10
-450.531
 20
101.415
 30
0
  0
SPLINE
  5
A70
330
A02
100
AcDbEntity
  8
ShapeString002
100
AcDbSpline
210
0
220
0
230
1
 70
8
 71
2
 72
6
 73
3
 74
0
 40
0
 40
0
 40
0
 40
1
 40
1
 40
1
 10
-443.472
 20
108.082
 30
0
 10
-443.771
 20
104.663
 30
0
 10
-445.634
 20
102.906
 30
0
  0
SPLINE
  5
A71
330
A02
100
AcDbEntity
  8
ShapeString002
100
AcDbSpline
210
0
220
0
230
1
 70
8
 71
2
 72
6
 73
3
 74
0
 40
0
 40
0
 40
0
 40
1
 40
1
 40
1
 10
-443.454
 20
109.251
 30
0
 10
-443.419
 20
108.683
 30
0
 10
-443.472
 20
108.082
 30
0
  0
SPLINE
  5
A72
330
A02
100
AcDbEntity
  8
ShapeString002
100
AcDbSpline
210
0
220
0
230
1
 70
8
 71
2
 72
6
 73
3
 74
0
 40
0
 40
0
 40
0
 40
1
 40
1
 40
1
 10
-443.582
 20
110.382
 30
0
 10
-443.48
 20
109.817
 30
0
 10
-443.454
 20
109.251
 30
0
  0
LINE
  5
A73
330
A02
100
AcDbEntity
  8
ShapeString002
100
AcDbLine
 10
-440.598
 20
110.121
 30
0
 11
-443.582
 21
110.382
 31
0
  0
LINE
  5
A74
330
A02
100
AcDbEntity
  8
ShapeString002
100
AcDbLine
 10
-441.311
 20
101.972
 30
0
 11
-440.598
 21
110.121
 31
0
  0
LINE
  5
A75
330
A02
100
AcDbEntity
  8
ShapeString002
100
AcDbLine
 10
-437.567
 20
101.645
 30
0
 11
-441.311
 21
101.972
 31
0
  0
LINE
  5
A76
330
A02
100
AcDbEntity
  8
ShapeString003
100
AcDbLine
 10
-395.352
 20
125.466
 30
0
 11
-396.095
 21
121.253
 31
0
  0
LINE
  5
A77
330
A02
100
AcDbEntity
  8
ShapeString003
100
AcDbLine
 10
-398.524
 20
126.026
 30
0
 11
-395.352
 21
125.466
 31
0
  0
LINE
  5
A78
330
A02
100
AcDbEntity
  8
ShapeString003
100
AcDbLine
 10
-400.806
 20
113.088
 30
0
 11
-398.524
 21
126.026
 31
0
  0
LINE
  5
A79
330
A02
100
AcDbEntity
  8
ShapeString003
100
AcDbLine
 10
-397.633
 20
112.528
 30
0
 11
-400.806
 21
113.088
 31
0
  0
LINE
  5
A7A
330
A02
100
AcDbEntity
  8
ShapeString003
100
AcDbLine
 10
-396.89
 20
116.742
 30
0
 11
-397.633
 21
112.528
 31
0
  0
LINE
  5
A7B
330
A02
100
AcDbEntity
  8
ShapeString003
100
AcDbLine
 10
-381.556
 20
114.038
 30
0
 11
-396.89
 21
116.742
 31
0
  0
LINE
  5
A7C
330
A02
100
AcDbEntity
  8
ShapeString003
100
AcDbLine
 10
-380.757
 20
118.574
 30
0
 11
-381.556
 21
114.038
 31
0
  0
LINE
  5
A7D
330
A02
100
AcDbEntity
  8
ShapeString003
100
AcDbLine
 10
-381.057
 20
123.056
 30
0
 11
-380.757
 21
118.574
 31
0
  0
LINE
  5
A7E
330
A02
100
AcDbEntity
  8
ShapeString003
100
AcDbLine
 10
-384.229
 20
123.616
 30
0
 11
-381.057
 21
123.056
 31
0
  0
LINE
  5
A7F
330
A02
100
AcDbEntity
  8
ShapeString003
100
AcDbLine
 10
-383.933
 20
119.108
 30
0
 11
-384.229
 21
123.616
 31
0
  0
LINE
  5
A80
330
A02
100
AcDbEntity
  8
ShapeString003
100
AcDbLine
 10
-396.095
 20
121.253
 30
0
 11
-383.933
 21
119.108
 31
0
  0
SPLINE
  5
A81
330
A02
100
AcDbEntity
  8
ShapeString003
100
AcDbSpline
210
0
220
0
230
1
 70
8
 71
2
 72
6
 73
3
 74
0
 40
0
 40
0
 40
0
 40
1
 40
1
 40
1
 10
-394.732
 20
93.4717
 30
0
 10
-399.417
 20
94.2977
 30
0
 10
-401.612
 20
96.7292
 30
0
  0
SPLINE
  5
A82
330
A02
100
AcDbEntity
  8
ShapeString003
100
AcDbSpline
210
0
220
0
230
1
 70
8
 71
2
 72
6
 73
3
 74
0
 40
0
 40
0
 40
0
 40
1
 40
1
 40
1
 10
-387.137
 20
94.1769
 30
0
 10
-390.031
 20
92.6427
 30
0
 10
-394.732
 20
93.4717
 30
0
  0
SPLINE
  5
A83
330
A02
100
AcDbEntity
  8
ShapeString003
100
AcDbSpline
210
0
220
0
230
1
 70
8
 71
2
 72
6
 73
3
 74
0
 40
0
 40
0
 40
0
 40
1
 40
1
 40
1
 10
-383.6
 20
99.3545
 30
0
 10
-384.243
 20
95.711
 30
0
 10
-387.137
 20
94.1769
 30
0
  0
SPLINE
  5
A84
330
A02
100
AcDbEntity
  8
ShapeString003
100
AcDbSpline
210
0
220
0
230
1
 70
8
 71
2
 72
6
 73
3
 74
0
 40
0
 40
0
 40
0
 40
1
 40
1
 40
1
 10
-385.15
 20
105.446
 30
0
 10
-382.955
 20
103.014
 30
0
 10
-383.6
 20
99.3545
 30
0
  0
SPLINE
  5
A85
330
A02
100
AcDbEntity
  8
ShapeString003
100
AcDbSpline
210
0
220
0
230
1
 70
8
 71
2
 72
6
 73
3
 74
0
 40
0
 40
0
 40
0
 40
1
 40
1
 40
1
 10
-392.046
 20
108.706
 30
0
 10
-387.345
 20
107.878
 30
0
 10
-385.15
 20
105.446
 30
0
  0
SPLINE
  5
A86
330
A02
100
AcDbEntity
  8
ShapeString003
100
AcDbSpline
210
0
220
0
230
1
 70
8
 71
2
 72
6
 73
3
 74
0
 40
0
 40
0
 40
0
 40
1
 40
1
 40
1
 10
-399.625
 20
107.998
 30
0
 10
-396.73
 20
109.532
 30
0
 10
-392.046
 20
108.706
 30
0
  0
SPLINE
  5
A87
330
A02
100
AcDbEntity
  8
ShapeString003
100
AcDbSpline
210
0
220
0
230
1
 70
8
 71
2
 72
6
 73
3
 74
0
 40
0
 40
0
 40
0
 40
1
 40
1
 40
1
 10
-403.164
 20
102.804
 30
0
 10
-402.519
 20
106.464
 30
0
 10
-399.625
 20
107.998
 30
0
  0
SPLINE
  5
A88
330
A02
100
AcDbEntity
  8
ShapeString003
100
AcDbSpline
210
0
220
0
230
1
 70
8
 71
2
 72
6
 73
3
 74
0
 40
0
 40
0
 40
0
 40
1
 40
1
 40
1
 10
-401.612
 20
96.7292
 30
0
 10
-403.807
 20
99.1607
 30
0
 10
-403.164
 20
102.804
 30
0
  0
SPLINE
  5
A89
330
A02
100
AcDbEntity
  8
ShapeString003
100
AcDbSpline
210
0
220
0
230
1
 70
8
 71
2
 72
6
 73
3
 74
0
 40
0
 40
0
 40
0
 40
1
 40
1
 40
1
 10
-393.841
 20
98.2382
 30
0
 10
-390.23
 20
97.6016
 30
0
 10
-388.636
 20
97.9935
 30
0
  0
SPLINE
  5
A8A
330
A02
100
AcDbEntity
  8
ShapeString003
100
AcDbSpline
210
0
220
0
230
1
 70
8
 71
2
 72
6
 73
3
 74
0
 40
0
 40
0
 40
0
 40
1
 40
1
 40
1
 10
-398.879
 20
99.8082
 30
0
 10
-397.492
 20
98.8821
 30
0
 10
-393.841
 20
98.2382
 30
0
  0
SPLINE
  5
A8B
330
A02
100
AcDbEntity
  8
ShapeString003
100
AcDbSpline
210
0
220
0
230
1
 70
8
 71
2
 72
6
 73
3
 74
0
 40
0
 40
0
 40
0
 40
1
 40
1
 40
1
 10
-399.992
 20
102.245
 30
0
 10
-400.26
 20
100.725
 30
0
 10
-398.879
 20
99.8082
 30
0
  0
SPLINE
  5
A8C
330
A02
100
AcDbEntity
  8
ShapeString003
100
AcDbSpline
210
0
220
0
230
1
 70
8
 71
2
 72
6
 73
3
 74
0
 40
0
 40
0
 40
0
 40
1
 40
1
 40
1
 10
-398.109
 20
104.179
 30
0
 10
-399.721
 20
103.781
 30
0
 10
-399.992
 20
102.245
 30
0
  0
SPLINE
  5
A8D
330
A02
100
AcDbEntity
  8
ShapeString003
100
AcDbSpline
210
0
220
0
230
1
 70
8
 71
2
 72
6
 73
3
 74
0
 40
0
 40
0
 40
0
 40
1
 40
1
 40
1
 10
-392.838
 20
103.922
 30
0
 10
-396.49
 20
104.566
 30
0
 10
-398.109
 20
104.179
 30
0
  0
SPLINE
  5
A8E
330
A02
100
AcDbEntity
  8
ShapeString003
100
AcDbSpline
210
0
220
0
230
1
 70
8
 71
2
 72
6
 73
3
 74
0
 40
0
 40
0
 40
0
 40
1
 40
1
 40
1
 10
-387.864
 20
102.372
 30
0
 10
-389.228
 20
103.286
 30
0
 10
-392.838
 20
103.922
 30
0
  0
SPLINE
  5
A8F
330
A02
100
AcDbEntity
  8
ShapeString003
100
AcDbSpline
210
0
220
0
230
1
 70
8
 71
2
 72
6
 73
3
 74
0
 40
0
 40
0
 40
0
 40
1
 40
1
 40
1
 10
-386.773
 20
99.9139
 30
0
 10
-386.502
 20
101.451
 30
0
 10
-387.864
 20
102.372
 30
0
  0
SPLINE
  5
A90
330
A02
100
AcDbEntity
  8
ShapeString003
100
AcDbSpline
210
0
220
0
230
1
 70
8
 71
2
 72
6
 73
3
 74
0
 40
0
 40
0
 40
0
 40
1
 40
1
 40
1
 10
-388.636
 20
97.9935
 30
0
 10
-387.044
 20
98.3772
 30
0
 10
-386.773
 20
99.9139
 30
0
  0
LINE
  5
A91
330
A02
100
AcDbEntity
  8
ShapeString004
100
AcDbLine
 10
-340.67
 20
113.249
 30
0
 11
-341.777
 21
109.116
 31
0
  0
LINE
  5
A92
330
A02
100
AcDbEntity
  8
ShapeString004
100
AcDbLine
 10
-343.782
 20
114.083
 30
0
 11
-340.67
 21
113.249
 31
0
  0
LINE
  5
A93
330
A02
100
AcDbEntity
  8
ShapeString004
100
AcDbLine
 10
-347.182
 20
101.393
 30
0
 11
-343.782
 21
114.083
 31
0
  0
LINE
  5
A94
330
A02
100
AcDbEntity
  8
ShapeString004
100
AcDbLine
 10
-344.07
 20
100.559
 30
0
 11
-347.182
 21
101.393
 31
0
  0
LINE
  5
A95
330
A02
100
AcDbEntity
  8
ShapeString004
100
AcDbLine
 10
-342.963
 20
104.692
 30
0
 11
-344.07
 21
100.559
 31
0
  0
LINE
  5
A96
330
A02
100
AcDbEntity
  8
ShapeString004
100
AcDbLine
 10
-327.923
 20
100.662
 30
0
 11
-342.963
 21
104.692
 31
0
  0
LINE
  5
A97
330
A02
100
AcDbEntity
  8
ShapeString004
100
AcDbLine
 10
-326.731
 20
105.111
 30
0
 11
-327.923
 21
100.662
 31
0
  0
LINE
  5
A98
330
A02
100
AcDbEntity
  8
ShapeString004
100
AcDbLine
 10
-326.639
 20
109.602
 30
0
 11
-326.731
 21
105.111
 31
0
  0
LINE
  5
A99
330
A02
100
AcDbEntity
  8
ShapeString004
100
AcDbLine
 10
-329.751
 20
110.436
 30
0
 11
-326.639
 21
109.602
 31
0
  0
LINE
  5
A9A
330
A02
100
AcDbEntity
  8
ShapeString004
100
AcDbLine
 10
-329.849
 20
105.92
 30
0
 11
-329.751
 21
110.436
 31
0
  0
LINE
  5
A9B
330
A02
100
AcDbEntity
  8
ShapeString004
100
AcDbLine
 10
-341.777
 20
109.116
 30
0
 11
-329.849
 21
105.92
 31
0
  0
LINE
  5
A9C
330
A02
100
AcDbEntity
  8
ShapeString004
100
AcDbLine
 10
-330.142
 20
92.3802
 30
0
 11
-333.258
 21
80.7518
 31
0
  0
LINE
  5
A9D
330
A02
100
AcDbEntity
  8
ShapeString004
100
AcDbLine
 10
-340.514
 20
95.1595
 30
0
 11
-330.142
 21
92.3802
 31
0
  0
SPLINE
  5
A9E
330
A02
100
AcDbEntity
  8
ShapeString004
100
AcDbSpline
210
0
220
0
230
1
 70
8
 71
2
 72
6
 73
3
 74
0
 40
0
 40
0
 40
0
 40
1
 40
1
 40
1
 10
-340.394
 20
92.4957
 30
0
 10
-340.339
 20
93.7056
 30
0
 10
-340.514
 20
95.1595
 30
0
  0
SPLINE
  5
A9F
330
A02
100
AcDbEntity
  8
ShapeString004
100
AcDbSpline
210
0
220
0
230
1
 70
8
 71
2
 72
6
 73
3
 74
0
 40
0
 40
0
 40
0
 40
1
 40
1
 40
1
 10
-340.713
 20
90.2707
 30
0
 10
-340.441
 20
91.2836
 30
0
 10
-340.394
 20
92.4957
 30
0
  0
SPLINE
  5
AA0
330
A02
100
AcDbEntity
  8
ShapeString004
100
AcDbSpline
210
0
220
0
230
1
 70
8
 71
2
 72
6
 73
3
 74
0
 40
0
 40
0
 40
0
 40
1
 40
1
 40
1
 10
-342.264
 20
87.8202
 30
0
 10
-341.169
 20
88.569
 30
0
 10
-340.713
 20
90.2707
 30
0
  0
SPLINE
  5
AA1
330
A02
100
AcDbEntity
  8
ShapeString004
100
AcDbSpline
210
0
220
0
230
1
 70
8
 71
2
 72
6
 73
3
 74
0
 40
0
 40
0
 40
0
 40
1
 40
1
 40
1
 10
-344.804
 20
87.4498
 30
0
 10
-343.361
 20
87.0633
 30
0
 10
-342.264
 20
87.8202
 30
0
  0
SPLINE
  5
AA2
330
A02
100
AcDbEntity
  8
ShapeString004
100
AcDbSpline
210
0
220
0
230
1
 70
8
 71
2
 72
6
 73
3
 74
0
 40
0
 40
0
 40
0
 40
1
 40
1
 40
1
 10
-346.818
 20
89.0405
 30
0
 10
-346.238
 20
87.8342
 30
0
 10
-344.804
 20
87.4498
 30
0
  0
SPLINE
  5
AA3
330
A02
100
AcDbEntity
  8
ShapeString004
100
AcDbSpline
210
0
220
0
230
1
 70
8
 71
2
 72
6
 73
3
 74
0
 40
0
 40
0
 40
0
 40
1
 40
1
 40
1
 10
-346.934
 20
91.9463
 30
0
 10
-347.39
 20
90.2446
 30
0
 10
-346.818
 20
89.0405
 30
0
  0
SPLINE
  5
AA4
330
A02
100
AcDbEntity
  8
ShapeString004
100
AcDbSpline
210
0
220
0
230
1
 70
8
 71
2
 72
6
 73
3
 74
0
 40
0
 40
0
 40
0
 40
1
 40
1
 40
1
 10
-345.872
 20
94.3542
 30
0
 10
-346.619
 20
93.1213
 30
0
 10
-346.934
 20
91.9463
 30
0
  0
SPLINE
  5
AA5
330
A02
100
AcDbEntity
  8
ShapeString004
100
AcDbSpline
210
0
220
0
230
1
 70
8
 71
2
 72
6
 73
3
 74
0
 40
0
 40
0
 40
0
 40
1
 40
1
 40
1
 10
-343.951
 20
96.8534
 30
0
 10
-345.127
 20
95.5789
 30
0
 10
-345.872
 20
94.3542
 30
0
  0
LINE
  5
AA6
330
A02
100
AcDbEntity
  8
ShapeString004
100
AcDbLine
 10
-347.582
 20
97.8261
 30
0
 11
-343.951
 21
96.8534
 31
0
  0
SPLINE
  5
AA7
330
A02
100
AcDbEntity
  8
ShapeString004
100
AcDbSpline
210
0
220
0
230
1
 70
8
 71
2
 72
6
 73
3
 74
0
 40
0
 40
0
 40
0
 40
1
 40
1
 40
1
 10
-349.165
 20
95.0282
 30
0
 10
-348.51
 20
96.4681
 30
0
 10
-347.582
 20
97.8261
 30
0
  0
SPLINE
  5
AA8
330
A02
100
AcDbEntity
  8
ShapeString004
100
AcDbSpline
210
0
220
0
230
1
 70
8
 71
2
 72
6
 73
3
 74
0
 40
0
 40
0
 40
0
 40
1
 40
1
 40
1
 10
-350.245
 20
92.0346
 30
0
 10
-349.831
 20
93.5824
 30
0
 10
-349.165
 20
95.0282
 30
0
  0
SPLINE
  5
AA9
330
A02
100
AcDbEntity
  8
ShapeString004
100
AcDbSpline
210
0
220
0
230
1
 70
8
 71
2
 72
6
 73
3
 74
0
 40
0
 40
0
 40
0
 40
1
 40
1
 40
1
 10
-350.096
 20
86.0106
 30
0
 10
-351.203
 20
88.461
 30
0
 10
-350.245
 20
92.0346
 30
0
  0
SPLINE
  5
AAA
330
A02
100
AcDbEntity
  8
ShapeString004
100
AcDbSpline
210
0
220
0
230
1
 70
8
 71
2
 72
6
 73
3
 74
0
 40
0
 40
0
 40
0
 40
1
 40
1
 40
1
 10
-346.065
 20
82.7763
 30
0
 10
-348.982
 20
83.558
 30
0
 10
-350.096
 20
86.0106
 30
0
  0
SPLINE
  5
AAB
330
A02
100
AcDbEntity
  8
ShapeString004
100
AcDbSpline
210
0
220
0
230
1
 70
8
 71
2
 72
6
 73
3
 74
0
 40
0
 40
0
 40
0
 40
1
 40
1
 40
1
 10
-340.983
 20
83.395
 30
0
 10
-343.123
 20
81.9882
 30
0
 10
-346.065
 20
82.7763
 30
0
  0
SPLINE
  5
AAC
330
A02
100
AcDbEntity
  8
ShapeString004
100
AcDbSpline
210
0
220
0
230
1
 70
8
 71
2
 72
6
 73
3
 74
0
 40
0
 40
0
 40
0
 40
1
 40
1
 40
1
 10
-337.955
 20
88.1161
 30
0
 10
-338.843
 20
84.8018
 30
0
 10
-340.983
 20
83.395
 30
0
  0
SPLINE
  5
AAD
330
A02
100
AcDbEntity
  8
ShapeString004
100
AcDbSpline
210
0
220
0
230
1
 70
8
 71
2
 72
6
 73
3
 74
0
 40
0
 40
0
 40
0
 40
1
 40
1
 40
1
 10
-337.734
 20
89.2641
 30
0
 10
-337.798
 20
88.6995
 30
0
 10
-337.955
 20
88.1161
 30
0
  0
SPLINE
  5
AAE
330
A02
100
AcDbEntity
  8
ShapeString004
100
AcDbSpline
210
0
220
0
230
1
 70
8
 71
2
 72
6
 73
3
 74
0
 40
0
 40
0
 40
0
 40
1
 40
1
 40
1
 10
-337.664
 20
90.4005
 30
0
 10
-337.661
 20
89.8266
 30
0
 10
-337.734
 20
89.2641
 30
0
  0
LINE
  5
AAF
330
A02
100
AcDbEntity
  8
ShapeString004
100
AcDbLine
 10
-334.771
 20
89.6254
 30
0
 11
-337.664
 21
90.4005
 31
0
  0
LINE
  5
AB0
330
A02
100
AcDbEntity
  8
ShapeString004
100
AcDbLine
 10
-336.888
 20
81.7245
 30
0
 11
-334.771
 21
89.6254
 31
0
  0
LINE
  5
AB1
330
A02
100
AcDbEntity
  8
ShapeString004
100
AcDbLine
 10
-333.258
 20
80.7518
 30
0
 11
-336.888
 21
81.7245
 31
0
  0
LINE
  5
AB2
330
A02
100
AcDbEntity
  8
ShapeString005
100
AcDbLine
 10
-289.008
 20
92.7378
 30
0
 11
-291.837
 21
84.9648
 31
0
  0
LINE
  5
AB3
330
A02
100
AcDbEntity
  8
ShapeString005
100
AcDbLine
 10
-287.11
 20
87.7709
 30
0
 11
-289.008
 21
92.7378
 31
0
  0
SPLINE
  5
AB4
330
A02
100
AcDbEntity
  8
ShapeString005
100
AcDbSpline
210
0
220
0
230
1
 70
8
 71
2
 72
6
 73
3
 74
0
 40
0
 40
0
 40
0
 40
1
 40
1
 40
1
 10
-284.899
 20
83.4218
 30
0
 10
-285.875
 20
84.6162
 30
0
 10
-287.11
 20
87.7709
 30
0
  0
SPLINE
  5
AB5
330
A02
100
AcDbEntity
  8
ShapeString005
100
AcDbSpline
210
0
220
0
230
1
 70
8
 71
2
 72
6
 73
3
 74
0
 40
0
 40
0
 40
0
 40
1
 40
1
 40
1
 10
-282.468
 20
81.6887
 30
0
 10
-283.918
 20
82.2167
 30
0
 10
-284.899
 20
83.4218
 30
0
  0
SPLINE
  5
AB6
330
A02
100
AcDbEntity
  8
ShapeString005
100
AcDbSpline
210
0
220
0
230
1
 70
8
 71
2
 72
6
 73
3
 74
0
 40
0
 40
0
 40
0
 40
1
 40
1
 40
1
 10
-277.926
 20
82.0264
 30
0
 10
-279.961
 20
80.7763
 30
0
 10
-282.468
 20
81.6887
 30
0
  0
SPLINE
  5
AB7
330
A02
100
AcDbEntity
  8
ShapeString005
100
AcDbSpline
210
0
220
0
230
1
 70
8
 71
2
 72
6
 73
3
 74
0
 40
0
 40
0
 40
0
 40
1
 40
1
 40
1
 10
-274.729
 20
86.4427
 30
0
 10
-275.883
 20
83.2736
 30
0
 10
-277.926
 20
82.0264
 30
0
  0
SPLINE
  5
AB8
330
A02
100
AcDbEntity
  8
ShapeString005
100
AcDbSpline
210
0
220
0
230
1
 70
8
 71
2
 72
6
 73
3
 74
0
 40
0
 40
0
 40
0
 40
1
 40
1
 40
1
 10
-273.916
 20
89.4858
 30
0
 10
-274.204
 20
87.8854
 30
0
 10
-274.729
 20
86.4427
 30
0
  0
SPLINE
  5
AB9
330
A02
100
AcDbEntity
  8
ShapeString005
100
AcDbSpline
210
0
220
0
230
1
 70
8
 71
2
 72
6
 73
3
 74
0
 40
0
 40
0
 40
0
 40
1
 40
1
 40
1
 10
-273.56
 20
92.7935
 30
0
 10
-273.623
 20
91.0754
 30
0
 10
-273.916
 20
89.4858
 30
0
  0
LINE
  5
ABA
330
A02
100
AcDbEntity
  8
ShapeString005
100
AcDbLine
 10
-277.597
 20
94.2625
 30
0
 11
-273.56
 21
92.7935
 31
0
  0
SPLINE
  5
ABB
330
A02
100
AcDbEntity
  8
ShapeString005
100
AcDbSpline
210
0
220
0
230
1
 70
8
 71
2
 72
6
 73
3
 74
0
 40
0
 40
0
 40
0
 40
1
 40
1
 40
1
 10
-277.075
 20
91.0105
 30
0
 10
-277.12
 20
92.4555
 30
0
 10
-277.597
 20
94.2625
 30
0
  0
SPLINE
  5
ABC
330
A02
100
AcDbEntity
  8
ShapeString005
100
AcDbSpline
210
0
220
0
230
1
 70
8
 71
2
 72
6
 73
3
 74
0
 40
0
 40
0
 40
0
 40
1
 40
1
 40
1
 10
-277.412
 20
88.4906
 30
0
 10
-277.025
 20
89.5548
 30
0
 10
-277.075
 20
91.0105
 30
0
  0
SPLINE
  5
ABD
330
A02
100
AcDbEntity
  8
ShapeString005
100
AcDbSpline
210
0
220
0
230
1
 70
8
 71
2
 72
6
 73
3
 74
0
 40
0
 40
0
 40
0
 40
1
 40
1
 40
1
 10
-278.999
 20
86.5594
 30
0
 10
-277.917
 20
87.1031
 30
0
 10
-277.412
 20
88.4906
 30
0
  0
SPLINE
  5
ABE
330
A02
100
AcDbEntity
  8
ShapeString005
100
AcDbSpline
210
0
220
0
230
1
 70
8
 71
2
 72
6
 73
3
 74
0
 40
0
 40
0
 40
0
 40
1
 40
1
 40
1
 10
-281.352
 20
86.4698
 30
0
 10
-280.075
 20
86.005
 30
0
 10
-278.999
 20
86.5594
 30
0
  0
SPLINE
  5
ABF
330
A02
100
AcDbEntity
  8
ShapeString005
100
AcDbSpline
210
0
220
0
230
1
 70
8
 71
2
 72
6
 73
3
 74
0
 40
0
 40
0
 40
0
 40
1
 40
1
 40
1
 10
-282.793
 20
87.4672
 30
0
 10
-282.18
 20
86.7711
 30
0
 10
-281.352
 20
86.4698
 30
0
  0
SPLINE
  5
AC0
330
A02
100
AcDbEntity
  8
ShapeString005
100
AcDbSpline
210
0
220
0
230
1
 70
8
 71
2
 72
6
 73
3
 74
0
 40
0
 40
0
 40
0
 40
1
 40
1
 40
1
 10
-283.9
 20
89.3074
 30
0
 10
-283.408
 20
88.1555
 30
0
 10
-282.793
 20
87.4672
 30
0
  0
LINE
  5
AC1
330
A02
100
AcDbEntity
  8
ShapeString005
100
AcDbLine
 10
-287.166
 20
97.7989
 30
0
 11
-283.9
 21
89.3074
 31
0
  0
LINE
  5
AC2
330
A02
100
AcDbEntity
  8
ShapeString005
100
AcDbLine
 10
-290.697
 20
99.0844
 30
0
 11
-287.166
 21
97.7989
 31
0
  0
LINE
  5
AC3
330
A02
100
AcDbEntity
  8
ShapeString005
100
AcDbLine
 10
-295.368
 20
86.2503
 30
0
 11
-290.697
 21
99.0844
 31
0
  0
LINE
  5
AC4
330
A02
100
AcDbEntity
  8
ShapeString005
100
AcDbLine
 10
-291.837
 20
84.9648
 30
0
 11
-295.368
 21
86.2503
 31
0
  0
SPLINE
  5
AC5
330
A02
100
AcDbEntity
  8
ShapeString005
100
AcDbSpline
210
0
220
0
230
1
 70
8
 71
2
 72
6
 73
3
 74
0
 40
0
 40
0
 40
0
 40
1
 40
1
 40
1
 10
-292.951
 20
65.444
 30
0
 10
-297.421
 20
67.0709
 30
0
 10
-299.161
 20
69.8466
 30
0
  0
SPLINE
  5
AC6
330
A02
100
AcDbEntity
  8
ShapeString005
100
AcDbSpline
210
0
220
0
230
1
 70
8
 71
2
 72
6
 73
3
 74
0
 40
0
 40
0
 40
0
 40
1
 40
1
 40
1
 10
-285.349
 20
64.8196
 30
0
 10
-288.466
 20
63.8113
 30
0
 10
-292.951
 20
65.444
 30
0
  0
SPLINE
  5
AC7
330
A02
100
AcDbEntity
  8
ShapeString005
100
AcDbSpline
210
0
220
0
230
1
 70
8
 71
2
 72
6
 73
3
 74
0
 40
0
 40
0
 40
0
 40
1
 40
1
 40
1
 10
-280.967
 20
69.3044
 30
0
 10
-282.232
 20
65.8278
 30
0
 10
-285.349
 20
64.8196
 30
0
  0
SPLINE
  5
AC8
330
A02
100
AcDbEntity
  8
ShapeString005
100
AcDbSpline
210
0
220
0
230
1
 70
8
 71
2
 72
6
 73
3
 74
0
 40
0
 40
0
 40
0
 40
1
 40
1
 40
1
 10
-281.435
 20
75.5724
 30
0
 10
-279.696
 20
72.7967
 30
0
 10
-280.967
 20
69.3044
 30
0
  0
SPLINE
  5
AC9
330
A02
100
AcDbEntity
  8
ShapeString005
100
AcDbSpline
210
0
220
0
230
1
 70
8
 71
2
 72
6
 73
3
 74
0
 40
0
 40
0
 40
0
 40
1
 40
1
 40
1
 10
-287.66
 20
79.9808
 30
0
 10
-283.175
 20
78.3482
 30
0
 10
-281.435
 20
75.5724
 30
0
  0
SPLINE
  5
ACA
330
A02
100
AcDbEntity
  8
ShapeString005
100
AcDbSpline
210
0
220
0
230
1
 70
8
 71
2
 72
6
 73
3
 74
0
 40
0
 40
0
 40
0
 40
1
 40
1
 40
1
 10
-295.247
 20
80.5995
 30
0
 10
-292.13
 20
81.6077
 30
0
 10
-287.66
 20
79.9808
 30
0
  0
SPLINE
  5
ACB
330
A02
100
AcDbEntity
  8
ShapeString005
100
AcDbSpline
210
0
220
0
230
1
 70
8
 71
2
 72
6
 73
3
 74
0
 40
0
 40
0
 40
0
 40
1
 40
1
 40
1
 10
-299.635
 20
76.0989
 30
0
 10
-298.364
 20
79.5912
 30
0
 10
-295.247
 20
80.5995
 30
0
  0
SPLINE
  5
ACC
330
A02
100
AcDbEntity
  8
ShapeString005
100
AcDbSpline
210
0
220
0
230
1
 70
8
 71
2
 72
6
 73
3
 74
0
 40
0
 40
0
 40
0
 40
1
 40
1
 40
1
 10
-299.161
 20
69.8466
 30
0
 10
-300.9
 20
72.6223
 30
0
 10
-299.635
 20
76.0989
 30
0
  0
SPLINE
  5
ACD
330
A02
100
AcDbEntity
  8
ShapeString005
100
AcDbSpline
210
0
220
0
230
1
 70
8
 71
2
 72
6
 73
3
 74
0
 40
0
 40
0
 40
0
 40
1
 40
1
 40
1
 10
-291.246
 20
69.9833
 30
0
 10
-287.801
 20
68.7294
 30
0
 10
-286.163
 20
68.8386
 30
0
  0
SPLINE
  5
ACE
330
A02
100
AcDbEntity
  8
ShapeString005
100
AcDbSpline
210
0
220
0
230
1
 70
8
 71
2
 72
6
 73
3
 74
0
 40
0
 40
0
 40
0
 40
1
 40
1
 40
1
 10
-295.935
 20
72.4044
 30
0
 10
-294.73
 20
71.2515
 30
0
 10
-291.246
 20
69.9833
 30
0
  0
SPLINE
  5
ACF
330
A02
100
AcDbEntity
  8
ShapeString005
100
AcDbSpline
210
0
220
0
230
1
 70
8
 71
2
 72
6
 73
3
 74
0
 40
0
 40
0
 40
0
 40
1
 40
1
 40
1
 10
-296.607
 20
74.9971
 30
0
 10
-297.135
 20
73.5465
 30
0
 10
-295.935
 20
72.4044
 30
0
  0
SPLINE
  5
AD0
330
A02
100
AcDbEntity
  8
ShapeString005
100
AcDbSpline
210
0
220
0
230
1
 70
8
 71
2
 72
6
 73
3
 74
0
 40
0
 40
0
 40
0
 40
1
 40
1
 40
1
 10
-294.417
 20
76.5747
 30
0
 10
-296.074
 20
76.4634
 30
0
 10
-296.607
 20
74.9971
 30
0
  0
SPLINE
  5
AD1
330
A02
100
AcDbEntity
  8
ShapeString005
100
AcDbSpline
210
0
220
0
230
1
 70
8
 71
2
 72
6
 73
3
 74
0
 40
0
 40
0
 40
0
 40
1
 40
1
 40
1
 10
-289.271
 20
75.407
 30
0
 10
-292.756
 20
76.6753
 30
0
 10
-294.417
 20
76.5747
 30
0
  0
SPLINE
  5
AD2
330
A02
100
AcDbEntity
  8
ShapeString005
100
AcDbSpline
210
0
220
0
230
1
 70
8
 71
2
 72
6
 73
3
 74
0
 40
0
 40
0
 40
0
 40
1
 40
1
 40
1
 10
-284.642
 20
73.0168
 30
0
 10
-285.826
 20
74.1532
 30
0
 10
-289.271
 20
75.407
 30
0
  0
SPLINE
  5
AD3
330
A02
100
AcDbEntity
  8
ShapeString005
100
AcDbSpline
210
0
220
0
230
1
 70
8
 71
2
 72
6
 73
3
 74
0
 40
0
 40
0
 40
0
 40
1
 40
1
 40
1
 10
-283.994
 20
70.4062
 30
0
 10
-283.46
 20
71.8725
 30
0
 10
-284.642
 20
73.0168
 30
0
  0
SPLINE
  5
AD4
330
A02
100
AcDbEntity
  8
ShapeString005
100
AcDbSpline
210
0
220
0
230
1
 70
8
 71
2
 72
6
 73
3
 74
0
 40
0
 40
0
 40
0
 40
1
 40
1
 40
1
 10
-286.163
 20
68.8386
 30
0
 10
-284.528
 20
68.9399
 30
0
 10
-283.994
 20
70.4062
 30
0
  0
LINE
  5
AD5
330
A02
100
AcDbEntity
  8
ShapeString006
100
AcDbLine
 10
-239.731
 20
73.6828
 30
0
 11
-243.227
 21
66.1859
 31
0
  0
LINE
  5
AD6
330
A02
100
AcDbEntity
  8
ShapeString006
100
AcDbLine
 10
-238.274
 20
68.5694
 30
0
 11
-239.731
 21
73.6828
 31
0
  0
SPLINE
  5
AD7
330
A02
100
AcDbEntity
  8
ShapeString006
100
AcDbSpline
210
0
220
0
230
1
 70
8
 71
2
 72
6
 73
3
 74
0
 40
0
 40
0
 40
0
 40
1
 40
1
 40
1
 10
-236.451
 20
64.0441
 30
0
 10
-237.319
 20
65.319
 30
0
 10
-238.274
 20
68.5694
 30
0
  0
SPLINE
  5
AD8
330
A02
100
AcDbEntity
  8
ShapeString006
100
AcDbSpline
210
0
220
0
230
1
 70
8
 71
2
 72
6
 73
3
 74
0
 40
0
 40
0
 40
0
 40
1
 40
1
 40
1
 10
-234.179
 20
62.1057
 30
0
 10
-235.578
 20
62.7581
 30
0
 10
-236.451
 20
64.0441
 30
0
  0
SPLINE
  5
AD9
330
A02
100
AcDbEntity
  8
ShapeString006
100
AcDbSpline
210
0
220
0
230
1
 70
8
 71
2
 72
6
 73
3
 74
0
 40
0
 40
0
 40
0
 40
1
 40
1
 40
1
 10
-229.625
 20
62.0462
 30
0
 10
-231.762
 20
60.9783
 30
0
 10
-234.179
 20
62.1057
 30
0
  0
SPLINE
  5
ADA
330
A02
100
AcDbEntity
  8
ShapeString006
100
AcDbSpline
210
0
220
0
230
1
 70
8
 71
2
 72
6
 73
3
 74
0
 40
0
 40
0
 40
0
 40
1
 40
1
 40
1
 10
-226.056
 20
66.1672
 30
0
 10
-227.481
 20
63.1107
 30
0
 10
-229.625
 20
62.0462
 30
0
  0
SPLINE
  5
ADB
330
A02
100
AcDbEntity
  8
ShapeString006
100
AcDbSpline
210
0
220
0
230
1
 70
8
 71
2
 72
6
 73
3
 74
0
 40
0
 40
0
 40
0
 40
1
 40
1
 40
1
 10
-224.981
 20
69.1278
 30
0
 10
-225.407
 20
67.5586
 30
0
 10
-226.056
 20
66.1672
 30
0
  0
SPLINE
  5
ADC
330
A02
100
AcDbEntity
  8
ShapeString006
100
AcDbSpline
210
0
220
0
230
1
 70
8
 71
2
 72
6
 73
3
 74
0
 40
0
 40
0
 40
0
 40
1
 40
1
 40
1
 10
-224.338
 20
72.3919
 30
0
 10
-224.55
 20
70.6859
 30
0
 10
-224.981
 20
69.1278
 30
0
  0
LINE
  5
ADD
330
A02
100
AcDbEntity
  8
ShapeString006
100
AcDbLine
 10
-228.231
 20
74.2072
 30
0
 11
-224.338
 21
72.3919
 31
0
  0
SPLINE
  5
ADE
330
A02
100
AcDbEntity
  8
ShapeString006
100
AcDbSpline
210
0
220
0
230
1
 70
8
 71
2
 72
6
 73
3
 74
0
 40
0
 40
0
 40
0
 40
1
 40
1
 40
1
 10
-227.995
 20
70.9221
 30
0
 10
-227.914
 20
72.3655
 30
0
 10
-228.231
 20
74.2072
 30
0
  0
SPLINE
  5
ADF
330
A02
100
AcDbEntity
  8
ShapeString006
100
AcDbSpline
210
0
220
0
230
1
 70
8
 71
2
 72
6
 73
3
 74
0
 40
0
 40
0
 40
0
 40
1
 40
1
 40
1
 10
-228.55
 20
68.441
 30
0
 10
-228.071
 20
69.4675
 30
0
 10
-227.995
 20
70.9221
 30
0
  0
SPLINE
  5
AE0
330
A02
100
AcDbEntity
  8
ShapeString006
100
AcDbSpline
210
0
220
0
230
1
 70
8
 71
2
 72
6
 73
3
 74
0
 40
0
 40
0
 40
0
 40
1
 40
1
 40
1
 10
-230.299
 20
66.6555
 30
0
 10
-229.174
 20
67.1029
 30
0
 10
-228.55
 20
68.441
 30
0
  0
SPLINE
  5
AE1
330
A02
100
AcDbEntity
  8
ShapeString006
100
AcDbSpline
210
0
220
0
230
1
 70
8
 71
2
 72
6
 73
3
 74
0
 40
0
 40
0
 40
0
 40
1
 40
1
 40
1
 10
-232.652
 20
66.7714
 30
0
 10
-231.42
 20
66.197
 30
0
 10
-230.299
 20
66.6555
 30
0
  0
SPLINE
  5
AE2
330
A02
100
AcDbEntity
  8
ShapeString006
100
AcDbSpline
210
0
220
0
230
1
 70
8
 71
2
 72
6
 73
3
 74
0
 40
0
 40
0
 40
0
 40
1
 40
1
 40
1
 10
-234
 20
67.8906
 30
0
 10
-233.45
 20
67.1437
 30
0
 10
-232.652
 20
66.7714
 30
0
  0
SPLINE
  5
AE3
330
A02
100
AcDbEntity
  8
ShapeString006
100
AcDbSpline
210
0
220
0
230
1
 70
8
 71
2
 72
6
 73
3
 74
0
 40
0
 40
0
 40
0
 40
1
 40
1
 40
1
 10
-234.942
 20
69.8202
 30
0
 10
-234.553
 20
68.6298
 30
0
 10
-234
 20
67.8906
 30
0
  0
LINE
  5
AE4
330
A02
100
AcDbEntity
  8
ShapeString006
100
AcDbLine
 10
-237.455
 20
78.564
 30
0
 11
-234.942
 21
69.8202
 31
0
  0
LINE
  5
AE5
330
A02
100
AcDbEntity
  8
ShapeString006
100
AcDbLine
 10
-240.862
 20
80.1524
 30
0
 11
-237.455
 21
78.564
 31
0
  0
LINE
  5
AE6
330
A02
100
AcDbEntity
  8
ShapeString006
100
AcDbLine
 10
-246.634
 20
67.7743
 30
0
 11
-240.862
 21
80.1524
 31
0
  0
LINE
  5
AE7
330
A02
100
AcDbEntity
  8
ShapeString006
100
AcDbLine
 10
-243.227
 20
66.1859
 30
0
 11
-246.634
 21
67.7743
 31
0
  0
LINE
  5
AE8
330
A02
100
AcDbEntity
  8
ShapeString006
100
AcDbLine
 10
-231.613
 20
55.5214
 30
0
 11
-236.7
 21
44.6108
 31
0
  0
LINE
  5
AE9
330
A02
100
AcDbEntity
  8
ShapeString006
100
AcDbLine
 10
-241.345
 20
60.0596
 30
0
 11
-231.613
 21
55.5214
 31
0
  0
SPLINE
  5
AEA
330
A02
100
AcDbEntity
  8
ShapeString006
100
AcDbSpline
210
0
220
0
230
1
 70
8
 71
2
 72
6
 73
3
 74
0
 40
0
 40
0
 40
0
 40
1
 40
1
 40
1
 10
-241.689
 20
57.4155
 30
0
 10
-241.425
 20
58.5974
 30
0
 10
-241.345
 20
60.0596
 30
0
  0
SPLINE
  5
AEB
330
A02
100
AcDbEntity
  8
ShapeString006
100
AcDbSpline
210
0
220
0
230
1
 70
8
 71
2
 72
6
 73
3
 74
0
 40
0
 40
0
 40
0
 40
1
 40
1
 40
1
 10
-242.389
 20
55.2796
 30
0
 10
-241.946
 20
56.23
 30
0
 10
-241.689
 20
57.4155
 30
0
  0
SPLINE
  5
AEC
330
A02
100
AcDbEntity
  8
ShapeString006
100
AcDbSpline
210
0
220
0
230
1
 70
8
 71
2
 72
6
 73
3
 74
0
 40
0
 40
0
 40
0
 40
1
 40
1
 40
1
 10
-244.342
 20
53.1357
 30
0
 10
-243.133
 20
53.6829
 30
0
 10
-242.389
 20
55.2796
 30
0
  0
SPLINE
  5
AED
330
A02
100
AcDbEntity
  8
ShapeString006
100
AcDbSpline
210
0
220
0
230
1
 70
8
 71
2
 72
6
 73
3
 74
0
 40
0
 40
0
 40
0
 40
1
 40
1
 40
1
 10
-246.907
 20
53.2119
 30
0
 10
-245.554
 20
52.5809
 30
0
 10
-244.342
 20
53.1357
 30
0
  0
SPLINE
  5
AEE
330
A02
100
AcDbEntity
  8
ShapeString006
100
AcDbSpline
210
0
220
0
230
1
 70
8
 71
2
 72
6
 73
3
 74
0
 40
0
 40
0
 40
0
 40
1
 40
1
 40
1
 10
-248.615
 20
55.1282
 30
0
 10
-248.253
 20
53.8395
 30
0
 10
-246.907
 20
53.2119
 30
0
  0
SPLINE
  5
AEF
330
A02
100
AcDbEntity
  8
ShapeString006
100
AcDbSpline
210
0
220
0
230
1
 70
8
 71
2
 72
6
 73
3
 74
0
 40
0
 40
0
 40
0
 40
1
 40
1
 40
1
 10
-248.225
 20
58.0101
 30
0
 10
-248.969
 20
56.4134
 30
0
 10
-248.615
 20
55.1282
 30
0
  0
SPLINE
  5
AF0
330
A02
100
AcDbEntity
  8
ShapeString006
100
AcDbSpline
210
0
220
0
230
1
 70
8
 71
2
 72
6
 73
3
 74
0
 40
0
 40
0
 40
0
 40
1
 40
1
 40
1
 10
-246.761
 20
60.1969
 30
0
 10
-247.711
 20
59.1125
 30
0
 10
-248.225
 20
58.0101
 30
0
  0
SPLINE
  5
AF1
330
A02
100
AcDbEntity
  8
ShapeString006
100
AcDbSpline
210
0
220
0
230
1
 70
8
 71
2
 72
6
 73
3
 74
0
 40
0
 40
0
 40
0
 40
1
 40
1
 40
1
 10
-244.435
 20
62.3247
 30
0
 10
-245.814
 20
61.2737
 30
0
 10
-246.761
 20
60.1969
 30
0
  0
LINE
  5
AF2
330
A02
100
AcDbEntity
  8
ShapeString006
100
AcDbLine
 10
-247.842
 20
63.913
 30
0
 11
-244.435
 21
62.3247
 31
0
  0
SPLINE
  5
AF3
330
A02
100
AcDbEntity
  8
ShapeString006
100
AcDbSpline
210
0
220
0
230
1
 70
8
 71
2
 72
6
 73
3
 74
0
 40
0
 40
0
 40
0
 40
1
 40
1
 40
1
 10
-249.887
 20
61.4326
 30
0
 10
-248.992
 20
62.7369
 30
0
 10
-247.842
 20
63.913
 30
0
  0
SPLINE
  5
AF4
330
A02
100
AcDbEntity
  8
ShapeString006
100
AcDbSpline
210
0
220
0
230
1
 70
8
 71
2
 72
6
 73
3
 74
0
 40
0
 40
0
 40
0
 40
1
 40
1
 40
1
 10
-251.47
 20
58.672
 30
0
 10
-250.793
 20
60.1243
 30
0
 10
-249.887
 20
61.4326
 30
0
  0
SPLINE
  5
AF5
330
A02
100
AcDbEntity
  8
ShapeString006
100
AcDbSpline
210
0
220
0
230
1
 70
8
 71
2
 72
6
 73
3
 74
0
 40
0
 40
0
 40
0
 40
1
 40
1
 40
1
 10
-252.37
 20
52.7137
 30
0
 10
-253.034
 20
55.319
 30
0
 10
-251.47
 20
58.672
 30
0
  0
SPLINE
  5
AF6
330
A02
100
AcDbEntity
  8
ShapeString006
100
AcDbSpline
210
0
220
0
230
1
 70
8
 71
2
 72
6
 73
3
 74
0
 40
0
 40
0
 40
0
 40
1
 40
1
 40
1
 10
-248.961
 20
48.8284
 30
0
 10
-251.698
 20
50.1048
 30
0
 10
-252.37
 20
52.7137
 30
0
  0
SPLINE
  5
AF7
330
A02
100
AcDbEntity
  8
ShapeString006
100
AcDbSpline
210
0
220
0
230
1
 70
8
 71
2
 72
6
 73
3
 74
0
 40
0
 40
0
 40
0
 40
1
 40
1
 40
1
 10
-243.849
 20
48.5552
 30
0
 10
-246.201
 20
47.5414
 30
0
 10
-248.961
 20
48.8284
 30
0
  0
SPLINE
  5
AF8
330
A02
100
AcDbEntity
  8
ShapeString006
100
AcDbSpline
210
0
220
0
230
1
 70
8
 71
2
 72
6
 73
3
 74
0
 40
0
 40
0
 40
0
 40
1
 40
1
 40
1
 10
-240.047
 20
52.6788
 30
0
 10
-241.497
 20
49.569
 30
0
 10
-243.849
 20
48.5552
 30
0
  0
SPLINE
  5
AF9
330
A02
100
AcDbEntity
  8
ShapeString006
100
AcDbSpline
210
0
220
0
230
1
 70
8
 71
2
 72
6
 73
3
 74
0
 40
0
 40
0
 40
0
 40
1
 40
1
 40
1
 10
-239.63
 20
53.7711
 30
0
 10
-239.792
 20
53.2262
 30
0
 10
-240.047
 20
52.6788
 30
0
  0
SPLINE
  5
AFA
330
A02
100
AcDbEntity
  8
ShapeString006
100
AcDbSpline
210
0
220
0
230
1
 70
8
 71
2
 72
6
 73
3
 74
0
 40
0
 40
0
 40
0
 40
1
 40
1
 40
1
 10
-239.364
 20
54.878
 30
0
 10
-239.461
 20
54.3124
 30
0
 10
-239.63
 20
53.7711
 30
0
  0
LINE
  5
AFB
330
A02
100
AcDbEntity
  8
ShapeString006
100
AcDbLine
 10
-236.65
 20
53.6123
 30
0
 11
-239.364
 21
54.878
 31
0
  0
LINE
  5
AFC
330
A02
100
AcDbEntity
  8
ShapeString006
100
AcDbLine
 10
-240.107
 20
46.1991
 30
0
 11
-236.65
 21
53.6123
 31
0
  0
LINE
  5
AFD
330
A02
100
AcDbEntity
  8
ShapeString006
100
AcDbLine
 10
-236.7
 20
44.6108
 30
0
 11
-240.107
 21
46.1991
 31
0
  0
SPLINE
  5
AFE
330
A02
100
AcDbEntity
  8
ShapeString007
100
AcDbSpline
210
0
220
0
230
1
 70
8
 71
2
 72
6
 73
3
 74
0
 40
0
 40
0
 40
0
 40
1
 40
1
 40
1
 10
-186.226
 20
40.5362
 30
0
 10
-187.607
 20
39.1345
 30
0
 10
-189.173
 20
38.9052
 30
0
  0
SPLINE
  5
AFF
330
A02
100
AcDbEntity
  8
ShapeString007
100
AcDbSpline
210
0
220
0
230
1
 70
8
 71
2
 72
6
 73
3
 74
0
 40
0
 40
0
 40
0
 40
1
 40
1
 40
1
 10
-186.202
 20
37.558
 30
0
 10
-186.7
 20
38.8432
 30
0
 10
-186.226
 20
40.5362
 30
0
  0
SPLINE
  5
B00
330
A02
100
AcDbEntity
  8
ShapeString007
100
AcDbSpline
210
0
220
0
230
1
 70
8
 71
2
 72
6
 73
3
 74
0
 40
0
 40
0
 40
0
 40
1
 40
1
 40
1
 10
-184.248
 20
35.4224
 30
0
 10
-185.708
 20
36.2655
 30
0
 10
-186.202
 20
37.558
 30
0
  0
SPLINE
  5
B01
330
A02
100
AcDbEntity
  8
ShapeString007
100
AcDbSpline
210
0
220
0
230
1
 70
8
 71
2
 72
6
 73
3
 74
0
 40
0
 40
0
 40
0
 40
1
 40
1
 40
1
 10
-180.141
 20
35.1533
 30
0
 10
-182.112
 20
34.1892
 30
0
 10
-184.248
 20
35.4224
 30
0
  0
SPLINE
  5
B02
330
A02
100
AcDbEntity
  8
ShapeString007
100
AcDbSpline
210
0
220
0
230
1
 70
8
 71
2
 72
6
 73
3
 74
0
 40
0
 40
0
 40
0
 40
1
 40
1
 40
1
 10
-176.334
 20
39.281
 30
0
 10
-178.167
 20
36.106
 30
0
 10
-180.141
 20
35.1533
 30
0
  0
SPLINE
  5
B03
330
A02
100
AcDbEntity
  8
ShapeString007
100
AcDbSpline
210
0
220
0
230
1
 70
8
 71
2
 72
6
 73
3
 74
0
 40
0
 40
0
 40
0
 40
1
 40
1
 40
1
 10
-175.066
 20
41.7456
 30
0
 10
-175.654
 20
40.4579
 30
0
 10
-176.334
 20
39.281
 30
0
  0
SPLINE
  5
B04
330
A02
100
AcDbEntity
  8
ShapeString007
100
AcDbSpline
210
0
220
0
230
1
 70
8
 71
2
 72
6
 73
3
 74
0
 40
0
 40
0
 40
0
 40
1
 40
1
 40
1
 10
-173.992
 20
44.4099
 30
0
 10
-174.477
 20
43.0333
 30
0
 10
-175.066
 20
41.7456
 30
0
  0
LINE
  5
B05
330
A02
100
AcDbEntity
  8
ShapeString007
100
AcDbLine
 10
-177.247
 20
46.2891
 30
0
 11
-173.992
 21
44.4099
 31
0
  0
SPLINE
  5
B06
330
A02
100
AcDbEntity
  8
ShapeString007
100
AcDbSpline
210
0
220
0
230
1
 70
8
 71
2
 72
6
 73
3
 74
0
 40
0
 40
0
 40
0
 40
1
 40
1
 40
1
 10
-177.744
 20
43.8345
 30
0
 10
-177.381
 20
45.0004
 30
0
 10
-177.247
 20
46.2891
 30
0
  0
SPLINE
  5
B07
330
A02
100
AcDbEntity
  8
ShapeString007
100
AcDbSpline
210
0
220
0
230
1
 70
8
 71
2
 72
6
 73
3
 74
0
 40
0
 40
0
 40
0
 40
1
 40
1
 40
1
 10
-178.687
 20
41.6473
 30
0
 10
-178.104
 20
42.6572
 30
0
 10
-177.744
 20
43.8345
 30
0
  0
SPLINE
  5
B08
330
A02
100
AcDbEntity
  8
ShapeString007
100
AcDbSpline
210
0
220
0
230
1
 70
8
 71
2
 72
6
 73
3
 74
0
 40
0
 40
0
 40
0
 40
1
 40
1
 40
1
 10
-180.457
 20
39.8404
 30
0
 10
-179.48
 20
40.2741
 30
0
 10
-178.687
 20
41.6473
 30
0
  0
SPLINE
  5
B09
330
A02
100
AcDbEntity
  8
ShapeString007
100
AcDbSpline
210
0
220
0
230
1
 70
8
 71
2
 72
6
 73
3
 74
0
 40
0
 40
0
 40
0
 40
1
 40
1
 40
1
 10
-182.419
 20
39.9657
 30
0
 10
-181.431
 20
39.3952
 30
0
 10
-180.457
 20
39.8404
 30
0
  0
SPLINE
  5
B0A
330
A02
100
AcDbEntity
  8
ShapeString007
100
AcDbSpline
210
0
220
0
230
1
 70
8
 71
2
 72
6
 73
3
 74
0
 40
0
 40
0
 40
0
 40
1
 40
1
 40
1
 10
-183.561
 20
41.6617
 30
0
 10
-183.487
 20
40.5823
 30
0
 10
-182.419
 20
39.9657
 30
0
  0
SPLINE
  5
B0B
330
A02
100
AcDbEntity
  8
ShapeString007
100
AcDbSpline
210
0
220
0
230
1
 70
8
 71
2
 72
6
 73
3
 74
0
 40
0
 40
0
 40
0
 40
1
 40
1
 40
1
 10
-182.73
 20
44.3104
 30
0
 10
-183.64
 20
42.7338
 30
0
 10
-183.561
 20
41.6617
 30
0
  0
LINE
  5
B0C
330
A02
100
AcDbEntity
  8
ShapeString007
100
AcDbLine
 10
-181.71
 20
46.0759
 30
0
 11
-182.73
 21
44.3104
 31
0
  0
LINE
  5
B0D
330
A02
100
AcDbEntity
  8
ShapeString007
100
AcDbLine
 10
-184.5
 20
47.6866
 30
0
 11
-181.71
 21
46.0759
 31
0
  0
LINE
  5
B0E
330
A02
100
AcDbEntity
  8
ShapeString007
100
AcDbLine
 10
-185.469
 20
46.0083
 30
0
 11
-184.5
 21
47.6866
 31
0
  0
SPLINE
  5
B0F
330
A02
100
AcDbEntity
  8
ShapeString007
100
AcDbSpline
210
0
220
0
230
1
 70
8
 71
2
 72
6
 73
3
 74
0
 40
0
 40
0
 40
0
 40
1
 40
1
 40
1
 10
-187.617
 20
43.6641
 30
0
 10
-186.497
 20
44.2283
 30
0
 10
-185.469
 20
46.0083
 30
0
  0
SPLINE
  5
B10
330
A02
100
AcDbEntity
  8
ShapeString007
100
AcDbSpline
210
0
220
0
230
1
 70
8
 71
2
 72
6
 73
3
 74
0
 40
0
 40
0
 40
0
 40
1
 40
1
 40
1
 10
-189.885
 20
43.7627
 30
0
 10
-188.73
 20
43.0957
 30
0
 10
-187.617
 20
43.6641
 30
0
  0
SPLINE
  5
B11
330
A02
100
AcDbEntity
  8
ShapeString007
100
AcDbSpline
210
0
220
0
230
1
 70
8
 71
2
 72
6
 73
3
 74
0
 40
0
 40
0
 40
0
 40
1
 40
1
 40
1
 10
-191.088
 20
45.639
 30
0
 10
-190.996
 20
44.4045
 30
0
 10
-189.885
 20
43.7627
 30
0
  0
SPLINE
  5
B12
330
A02
100
AcDbEntity
  8
ShapeString007
100
AcDbSpline
210
0
220
0
230
1
 70
8
 71
2
 72
6
 73
3
 74
0
 40
0
 40
0
 40
0
 40
1
 40
1
 40
1
 10
-190.207
 20
48.5403
 30
0
 10
-191.172
 20
46.8693
 30
0
 10
-191.088
 20
45.639
 30
0
  0
SPLINE
  5
B13
330
A02
100
AcDbEntity
  8
ShapeString007
100
AcDbSpline
210
0
220
0
230
1
 70
8
 71
2
 72
6
 73
3
 74
0
 40
0
 40
0
 40
0
 40
1
 40
1
 40
1
 10
-188.541
 20
50.6203
 30
0
 10
-189.561
 20
49.6592
 30
0
 10
-190.207
 20
48.5403
 30
0
  0
SPLINE
  5
B14
330
A02
100
AcDbEntity
  8
ShapeString007
100
AcDbSpline
210
0
220
0
230
1
 70
8
 71
2
 72
6
 73
3
 74
0
 40
0
 40
0
 40
0
 40
1
 40
1
 40
1
 10
-186.144
 20
52.3557
 30
0
 10
-187.514
 20
51.5772
 30
0
 10
-188.541
 20
50.6203
 30
0
  0
LINE
  5
B15
330
A02
100
AcDbEntity
  8
ShapeString007
100
AcDbLine
 10
-189.399
 20
54.2349
 30
0
 11
-186.144
 21
52.3557
 31
0
  0
SPLINE
  5
B16
330
A02
100
AcDbEntity
  8
ShapeString007
100
AcDbSpline
210
0
220
0
230
1
 70
8
 71
2
 72
6
 73
3
 74
0
 40
0
 40
0
 40
0
 40
1
 40
1
 40
1
 10
-191.531
 20
52.1528
 30
0
 10
-190.573
 20
53.2755
 30
0
 10
-189.399
 20
54.2349
 30
0
  0
SPLINE
  5
B17
330
A02
100
AcDbEntity
  8
ShapeString007
100
AcDbSpline
210
0
220
0
230
1
 70
8
 71
2
 72
6
 73
3
 74
0
 40
0
 40
0
 40
0
 40
1
 40
1
 40
1
 10
-193.215
 20
49.7733
 30
0
 10
-192.494
 20
51.0229
 30
0
 10
-191.531
 20
52.1528
 30
0
  0
SPLINE
  5
B18
330
A02
100
AcDbEntity
  8
ShapeString007
100
AcDbSpline
210
0
220
0
230
1
 70
8
 71
2
 72
6
 73
3
 74
0
 40
0
 40
0
 40
0
 40
1
 40
1
 40
1
 10
-195.057
 20
43.6296
 30
0
 10
-195.266
 20
46.2205
 30
0
 10
-193.215
 20
49.7733
 30
0
  0
SPLINE
  5
B19
330
A02
100
AcDbEntity
  8
ShapeString007
100
AcDbSpline
210
0
220
0
230
1
 70
8
 71
2
 72
6
 73
3
 74
0
 40
0
 40
0
 40
0
 40
1
 40
1
 40
1
 10
-192.385
 20
39.6167
 30
0
 10
-194.848
 20
41.0387
 30
0
 10
-195.057
 20
43.6296
 30
0
  0
SPLINE
  5
B1A
330
A02
100
AcDbEntity
  8
ShapeString007
100
AcDbSpline
210
0
220
0
230
1
 70
8
 71
2
 72
6
 73
3
 74
0
 40
0
 40
0
 40
0
 40
1
 40
1
 40
1
 10
-189.173
 20
38.9052
 30
0
 10
-190.736
 20
38.6645
 30
0
 10
-192.385
 20
39.6167
 30
0
  0
SPLINE
  5
B1B
330
A02
100
AcDbEntity
  8
ShapeString007
100
AcDbSpline
210
0
220
0
230
1
 70
8
 71
2
 72
6
 73
3
 74
0
 40
0
 40
0
 40
0
 40
1
 40
1
 40
1
 10
-198.081
 20
21.4966
 30
0
 10
-202.2
 20
23.875
 30
0
 10
-203.431
 20
26.9106
 30
0
  0
SPLINE
  5
B1C
330
A02
100
AcDbEntity
  8
ShapeString007
100
AcDbSpline
210
0
220
0
230
1
 70
8
 71
2
 72
6
 73
3
 74
0
 40
0
 40
0
 40
0
 40
1
 40
1
 40
1
 10
-190.702
 20
19.5616
 30
0
 10
-193.947
 20
19.1099
 30
0
 10
-198.081
 20
21.4966
 30
0
  0
SPLINE
  5
B1D
330
A02
100
AcDbEntity
  8
ShapeString007
100
AcDbSpline
210
0
220
0
230
1
 70
8
 71
2
 72
6
 73
3
 74
0
 40
0
 40
0
 40
0
 40
1
 40
1
 40
1
 10
-185.608
 20
23.2173
 30
0
 10
-187.458
 20
20.0133
 30
0
 10
-190.702
 20
19.5616
 30
0
  0
SPLINE
  5
B1E
330
A02
100
AcDbEntity
  8
ShapeString007
100
AcDbSpline
210
0
220
0
230
1
 70
8
 71
2
 72
6
 73
3
 74
0
 40
0
 40
0
 40
0
 40
1
 40
1
 40
1
 10
-184.981
 20
29.4715
 30
0
 10
-183.75
 20
26.4359
 30
0
 10
-185.608
 20
23.2173
 30
0
  0
SPLINE
  5
B1F
330
A02
100
AcDbEntity
  8
ShapeString007
100
AcDbSpline
210
0
220
0
230
1
 70
8
 71
2
 72
6
 73
3
 74
0
 40
0
 40
0
 40
0
 40
1
 40
1
 40
1
 10
-190.346
 20
34.8939
 30
0
 10
-186.212
 20
32.5071
 30
0
 10
-184.981
 20
29.4715
 30
0
  0
SPLINE
  5
B20
330
A02
100
AcDbEntity
  8
ShapeString007
100
AcDbSpline
210
0
220
0
230
1
 70
8
 71
2
 72
6
 73
3
 74
0
 40
0
 40
0
 40
0
 40
1
 40
1
 40
1
 10
-197.71
 20
36.8205
 30
0
 10
-194.465
 20
37.2722
 30
0
 10
-190.346
 20
34.8939
 30
0
  0
SPLINE
  5
B21
330
A02
100
AcDbEntity
  8
ShapeString007
100
AcDbSpline
210
0
220
0
230
1
 70
8
 71
2
 72
6
 73
3
 74
0
 40
0
 40
0
 40
0
 40
1
 40
1
 40
1
 10
-202.812
 20
33.1502
 30
0
 10
-200.954
 20
36.3688
 30
0
 10
-197.71
 20
36.8205
 30
0
  0
SPLINE
  5
B22
330
A02
100
AcDbEntity
  8
ShapeString007
100
AcDbSpline
210
0
220
0
230
1
 70
8
 71
2
 72
6
 73
3
 74
0
 40
0
 40
0
 40
0
 40
1
 40
1
 40
1
 10
-203.431
 20
26.9106
 30
0
 10
-204.662
 20
29.9462
 30
0
 10
-202.812
 20
33.1502
 30
0
  0
SPLINE
  5
B23
330
A02
100
AcDbEntity
  8
ShapeString007
100
AcDbSpline
210
0
220
0
230
1
 70
8
 71
2
 72
6
 73
3
 74
0
 40
0
 40
0
 40
0
 40
1
 40
1
 40
1
 10
-195.613
 20
25.6708
 30
0
 10
-192.438
 20
23.8378
 30
0
 10
-190.806
 20
23.6609
 30
0
  0
SPLINE
  5
B24
330
A02
100
AcDbEntity
  8
ShapeString007
100
AcDbSpline
210
0
220
0
230
1
 70
8
 71
2
 72
6
 73
3
 74
0
 40
0
 40
0
 40
0
 40
1
 40
1
 40
1
 10
-199.811
 20
28.8695
 30
0
 10
-198.824
 20
27.5248
 30
0
 10
-195.613
 20
25.6708
 30
0
  0
SPLINE
  5
B25
330
A02
100
AcDbEntity
  8
ShapeString007
100
AcDbSpline
210
0
220
0
230
1
 70
8
 71
2
 72
6
 73
3
 74
0
 40
0
 40
0
 40
0
 40
1
 40
1
 40
1
 10
-200.022
 20
31.5395
 30
0
 10
-200.794
 20
30.2027
 30
0
 10
-199.811
 20
28.8695
 30
0
  0
SPLINE
  5
B26
330
A02
100
AcDbEntity
  8
ShapeString007
100
AcDbSpline
210
0
220
0
230
1
 70
8
 71
2
 72
6
 73
3
 74
0
 40
0
 40
0
 40
0
 40
1
 40
1
 40
1
 10
-197.592
 20
32.7128
 30
0
 10
-199.242
 20
32.8908
 30
0
 10
-200.022
 20
31.5395
 30
0
  0
SPLINE
  5
B27
330
A02
100
AcDbEntity
  8
ShapeString007
100
AcDbSpline
210
0
220
0
230
1
 70
8
 71
2
 72
6
 73
3
 74
0
 40
0
 40
0
 40
0
 40
1
 40
1
 40
1
 10
-192.727
 20
30.6693
 30
0
 10
-195.938
 20
32.5234
 30
0
 10
-197.592
 20
32.7128
 30
0
  0
SPLINE
  5
B28
330
A02
100
AcDbEntity
  8
ShapeString007
100
AcDbSpline
210
0
220
0
230
1
 70
8
 71
2
 72
6
 73
3
 74
0
 40
0
 40
0
 40
0
 40
1
 40
1
 40
1
 10
-188.583
 20
27.5115
 30
0
 10
-189.552
 20
28.8363
 30
0
 10
-192.727
 20
30.6693
 30
0
  0
SPLINE
  5
B29
330
A02
100
AcDbEntity
  8
ShapeString007
100
AcDbSpline
210
0
220
0
230
1
 70
8
 71
2
 72
6
 73
3
 74
0
 40
0
 40
0
 40
0
 40
1
 40
1
 40
1
 10
-188.398
 20
24.8281
 30
0
 10
-187.618
 20
26.1794
 30
0
 10
-188.583
 20
27.5115
 30
0
  0
SPLINE
  5
B2A
330
A02
100
AcDbEntity
  8
ShapeString007
100
AcDbSpline
210
0
220
0
230
1
 70
8
 71
2
 72
6
 73
3
 74
0
 40
0
 40
0
 40
0
 40
1
 40
1
 40
1
 10
-190.806
 20
23.6609
 30
0
 10
-189.178
 20
23.4767
 30
0
 10
-188.398
 20
24.8281
 30
0
  0
SPLINE
  5
B2B
330
A02
100
AcDbEntity
  8
ShapeString008
100
AcDbSpline
210
0
220
0
230
1
 70
8
 71
2
 72
6
 73
3
 74
0
 40
0
 40
0
 40
0
 40
1
 40
1
 40
1
 10
-142.584
 20
10.3533
 30
0
 10
-144.082
 20
9.07724
 30
0
 10
-145.662
 20
8.98536
 30
0
  0
SPLINE
  5
B2C
330
A02
100
AcDbEntity
  8
ShapeString008
100
AcDbSpline
210
0
220
0
230
1
 70
8
 71
2
 72
6
 73
3
 74
0
 40
0
 40
0
 40
0
 40
1
 40
1
 40
1
 10
-142.82
 20
7.3843
 30
0
 10
-143.204
 20
8.70805
 30
0
 10
-142.584
 20
10.3533
 30
0
  0
SPLINE
  5
B2D
330
A02
100
AcDbEntity
  8
ShapeString008
100
AcDbSpline
210
0
220
0
230
1
 70
8
 71
2
 72
6
 73
3
 74
0
 40
0
 40
0
 40
0
 40
1
 40
1
 40
1
 10
-141.059
 20
5.0865
 30
0
 10
-142.441
 20
6.05368
 30
0
 10
-142.82
 20
7.3843
 30
0
  0
SPLINE
  5
B2E
330
A02
100
AcDbEntity
  8
ShapeString008
100
AcDbSpline
210
0
220
0
230
1
 70
8
 71
2
 72
6
 73
3
 74
0
 40
0
 40
0
 40
0
 40
1
 40
1
 40
1
 10
-136.991
 20
4.46051
 30
0
 10
-139.039
 20
3.6718
 30
0
 10
-141.059
 20
5.0865
 30
0
  0
SPLINE
  5
B2F
330
A02
100
AcDbEntity
  8
ShapeString008
100
AcDbSpline
210
0
220
0
230
1
 70
8
 71
2
 72
6
 73
3
 74
0
 40
0
 40
0
 40
0
 40
1
 40
1
 40
1
 10
-132.839
 20
8.24063
 30
0
 10
-134.942
 20
5.23753
 30
0
 10
-136.991
 20
4.46051
 30
0
  0
SPLINE
  5
B30
330
A02
100
AcDbEntity
  8
ShapeString008
100
AcDbSpline
210
0
220
0
230
1
 70
8
 71
2
 72
6
 73
3
 74
0
 40
0
 40
0
 40
0
 40
1
 40
1
 40
1
 10
-131.361
 20
10.5854
 30
0
 10
-132.06
 20
9.35391
 30
0
 10
-132.839
 20
8.24063
 30
0
  0
SPLINE
  5
B31
330
A02
100
AcDbEntity
  8
ShapeString008
100
AcDbSpline
210
0
220
0
230
1
 70
8
 71
2
 72
6
 73
3
 74
0
 40
0
 40
0
 40
0
 40
1
 40
1
 40
1
 10
-130.06
 20
13.146
 30
0
 10
-130.663
 20
11.8169
 30
0
 10
-131.361
 20
10.5854
 30
0
  0
LINE
  5
B32
330
A02
100
AcDbEntity
  8
ShapeString008
100
AcDbLine
 10
-133.138
 20
15.3017
 30
0
 11
-130.06
 21
13.146
 31
0
  0
SPLINE
  5
B33
330
A02
100
AcDbEntity
  8
ShapeString008
100
AcDbSpline
210
0
220
0
230
1
 70
8
 71
2
 72
6
 73
3
 74
0
 40
0
 40
0
 40
0
 40
1
 40
1
 40
1
 10
-133.847
 20
12.8998
 30
0
 10
-133.384
 20
14.0296
 30
0
 10
-133.138
 20
15.3017
 30
0
  0
SPLINE
  5
B34
330
A02
100
AcDbEntity
  8
ShapeString008
100
AcDbSpline
210
0
220
0
230
1
 70
8
 71
2
 72
6
 73
3
 74
0
 40
0
 40
0
 40
0
 40
1
 40
1
 40
1
 10
-134.978
 20
10.8031
 30
0
 10
-134.309
 20
11.7583
 30
0
 10
-133.847
 20
12.8998
 30
0
  0
SPLINE
  5
B35
330
A02
100
AcDbEntity
  8
ShapeString008
100
AcDbSpline
210
0
220
0
230
1
 70
8
 71
2
 72
6
 73
3
 74
0
 40
0
 40
0
 40
0
 40
1
 40
1
 40
1
 10
-136.898
 20
9.15733
 30
0
 10
-135.887
 20
9.50427
 30
0
 10
-134.978
 20
10.8031
 30
0
  0
SPLINE
  5
B36
330
A02
100
AcDbEntity
  8
ShapeString008
100
AcDbSpline
210
0
220
0
230
1
 70
8
 71
2
 72
6
 73
3
 74
0
 40
0
 40
0
 40
0
 40
1
 40
1
 40
1
 10
-138.842
 20
9.45313
 30
0
 10
-137.907
 20
8.79872
 30
0
 10
-136.898
 20
9.15733
 30
0
  0
SPLINE
  5
B37
330
A02
100
AcDbEntity
  8
ShapeString008
100
AcDbSpline
210
0
220
0
230
1
 70
8
 71
2
 72
6
 73
3
 74
0
 40
0
 40
0
 40
0
 40
1
 40
1
 40
1
 10
-139.832
 20
11.2422
 30
0
 10
-139.852
 20
10.1605
 30
0
 10
-138.842
 20
9.45313
 30
0
  0
SPLINE
  5
B38
330
A02
100
AcDbEntity
  8
ShapeString008
100
AcDbSpline
210
0
220
0
230
1
 70
8
 71
2
 72
6
 73
3
 74
0
 40
0
 40
0
 40
0
 40
1
 40
1
 40
1
 10
-138.772
 20
13.8084
 30
0
 10
-139.816
 20
12.3171
 30
0
 10
-139.832
 20
11.2422
 30
0
  0
LINE
  5
B39
330
A02
100
AcDbEntity
  8
ShapeString008
100
AcDbLine
 10
-137.603
 20
15.4783
 30
0
 11
-138.772
 21
13.8084
 31
0
  0
LINE
  5
B3A
330
A02
100
AcDbEntity
  8
ShapeString008
100
AcDbLine
 10
-140.242
 20
17.3261
 30
0
 11
-137.603
 21
15.4783
 31
0
  0
LINE
  5
B3B
330
A02
100
AcDbEntity
  8
ShapeString008
100
AcDbLine
 10
-141.353
 20
15.7386
 30
0
 11
-140.242
 21
17.3261
 31
0
  0
SPLINE
  5
B3C
330
A02
100
AcDbEntity
  8
ShapeString008
100
AcDbSpline
210
0
220
0
230
1
 70
8
 71
2
 72
6
 73
3
 74
0
 40
0
 40
0
 40
0
 40
1
 40
1
 40
1
 10
-143.697
 20
13.5905
 30
0
 10
-142.532
 20
14.055
 30
0
 10
-141.353
 20
15.7386
 30
0
  0
SPLINE
  5
B3D
330
A02
100
AcDbEntity
  8
ShapeString008
100
AcDbSpline
210
0
220
0
230
1
 70
8
 71
2
 72
6
 73
3
 74
0
 40
0
 40
0
 40
0
 40
1
 40
1
 40
1
 10
-145.948
 20
13.8864
 30
0
 10
-144.855
 20
13.1213
 30
0
 10
-143.697
 20
13.5905
 30
0
  0
SPLINE
  5
B3E
330
A02
100
AcDbEntity
  8
ShapeString008
100
AcDbSpline
210
0
220
0
230
1
 70
8
 71
2
 72
6
 73
3
 74
0
 40
0
 40
0
 40
0
 40
1
 40
1
 40
1
 10
-146.983
 20
15.8604
 30
0
 10
-146.999
 20
14.6226
 30
0
 10
-145.948
 20
13.8864
 30
0
  0
SPLINE
  5
B3F
330
A02
100
AcDbEntity
  8
ShapeString008
100
AcDbSpline
210
0
220
0
230
1
 70
8
 71
2
 72
6
 73
3
 74
0
 40
0
 40
0
 40
0
 40
1
 40
1
 40
1
 10
-145.853
 20
18.6739
 30
0
 10
-146.959
 20
17.0933
 30
0
 10
-146.983
 20
15.8604
 30
0
  0
SPLINE
  5
B40
330
A02
100
AcDbEntity
  8
ShapeString008
100
AcDbSpline
210
0
220
0
230
1
 70
8
 71
2
 72
6
 73
3
 74
0
 40
0
 40
0
 40
0
 40
1
 40
1
 40
1
 10
-144.012
 20
20.6008
 30
0
 10
-145.112
 20
19.7322
 30
0
 10
-145.853
 20
18.6739
 30
0
  0
SPLINE
  5
B41
330
A02
100
AcDbEntity
  8
ShapeString008
100
AcDbSpline
210
0
220
0
230
1
 70
8
 71
2
 72
6
 73
3
 74
0
 40
0
 40
0
 40
0
 40
1
 40
1
 40
1
 10
-141.473
 20
22.1207
 30
0
 10
-142.905
 20
21.4645
 30
0
 10
-144.012
 20
20.6008
 30
0
  0
LINE
  5
B42
330
A02
100
AcDbEntity
  8
ShapeString008
100
AcDbLine
 10
-144.551
 20
24.2764
 30
0
 11
-141.473
 21
22.1207
 31
0
  0
SPLINE
  5
B43
330
A02
100
AcDbEntity
  8
ShapeString008
100
AcDbSpline
210
0
220
0
230
1
 70
8
 71
2
 72
6
 73
3
 74
0
 40
0
 40
0
 40
0
 40
1
 40
1
 40
1
 10
-146.857
 20
22.3881
 30
0
 10
-145.804
 20
23.423
 30
0
 10
-144.551
 20
24.2764
 30
0
  0
SPLINE
  5
B44
330
A02
100
AcDbEntity
  8
ShapeString008
100
AcDbSpline
210
0
220
0
230
1
 70
8
 71
2
 72
6
 73
3
 74
0
 40
0
 40
0
 40
0
 40
1
 40
1
 40
1
 10
-148.742
 20
20.1643
 30
0
 10
-147.914
 20
21.3463
 30
0
 10
-146.857
 20
22.3881
 30
0
  0
SPLINE
  5
B45
330
A02
100
AcDbEntity
  8
ShapeString008
100
AcDbSpline
210
0
220
0
230
1
 70
8
 71
2
 72
6
 73
3
 74
0
 40
0
 40
0
 40
0
 40
1
 40
1
 40
1
 10
-151.112
 20
14.2046
 30
0
 10
-151.095
 20
16.8039
 30
0
 10
-148.742
 20
20.1643
 30
0
  0
SPLINE
  5
B46
330
A02
100
AcDbEntity
  8
ShapeString008
100
AcDbSpline
210
0
220
0
230
1
 70
8
 71
2
 72
6
 73
3
 74
0
 40
0
 40
0
 40
0
 40
1
 40
1
 40
1
 10
-148.8
 20
9.9741
 30
0
 10
-151.13
 20
11.6053
 30
0
 10
-151.112
 20
14.2046
 30
0
  0
SPLINE
  5
B47
330
A02
100
AcDbEntity
  8
ShapeString008
100
AcDbSpline
210
0
220
0
230
1
 70
8
 71
2
 72
6
 73
3
 74
0
 40
0
 40
0
 40
0
 40
1
 40
1
 40
1
 10
-145.662
 20
8.98536
 30
0
 10
-147.24
 20
8.8818
 30
0
 10
-148.8
 20
9.9741
 30
0
  0
LINE
  5
B48
330
A02
100
AcDbEntity
  8
ShapeString008
100
AcDbLine
 10
-140.338
 20
-1.53275
 30
0
 11
-147.243
 21
-11.3942
 31
0
  0
LINE
  5
B49
330
A02
100
AcDbEntity
  8
ShapeString008
100
AcDbLine
 10
-149.134
 20
4.62646
 30
0
 11
-140.338
 21
-1.53275
 31
0
  0
SPLINE
  5
B4A
330
A02
100
AcDbEntity
  8
ShapeString008
100
AcDbSpline
210
0
220
0
230
1
 70
8
 71
2
 72
6
 73
3
 74
0
 40
0
 40
0
 40
0
 40
1
 40
1
 40
1
 10
-149.932
 20
2.08228
 30
0
 10
-149.467
 20
3.20041
 30
0
 10
-149.134
 20
4.62646
 30
0
  0
SPLINE
  5
B4B
330
A02
100
AcDbEntity
  8
ShapeString008
100
AcDbSpline
210
0
220
0
230
1
 70
8
 71
2
 72
6
 73
3
 74
0
 40
0
 40
0
 40
0
 40
1
 40
1
 40
1
 10
-150.993
 20
0.100324
 30
0
 10
-150.391
 20
0.959334
 30
0
 10
-149.932
 20
2.08228
 30
0
  0
SPLINE
  5
B4C
330
A02
100
AcDbEntity
  8
ShapeString008
100
AcDbSpline
210
0
220
0
230
1
 70
8
 71
2
 72
6
 73
3
 74
0
 40
0
 40
0
 40
0
 40
1
 40
1
 40
1
 10
-153.288
 20
-1.67184
 30
0
 10
-152.003
 20
-1.34281
 30
0
 10
-150.993
 20
0.100324
 30
0
  0
SPLINE
  5
B4D
330
A02
100
AcDbEntity
  8
ShapeString008
100
AcDbSpline
210
0
220
0
230
1
 70
8
 71
2
 72
6
 73
3
 74
0
 40
0
 40
0
 40
0
 40
1
 40
1
 40
1
 10
-155.802
 20
-1.15122
 30
0
 10
-154.578
 20
-2.00774
 30
0
 10
-153.288
 20
-1.67184
 30
0
  0
SPLINE
  5
B4E
330
A02
100
AcDbEntity
  8
ShapeString008
100
AcDbSpline
210
0
220
0
230
1
 70
8
 71
2
 72
6
 73
3
 74
0
 40
0
 40
0
 40
0
 40
1
 40
1
 40
1
 10
-157.15
 20
1.03244
 30
0
 10
-157.018
 20
-0.299518
 30
0
 10
-155.802
 20
-1.15122
 30
0
  0
SPLINE
  5
B4F
330
A02
100
AcDbEntity
  8
ShapeString008
100
AcDbSpline
210
0
220
0
230
1
 70
8
 71
2
 72
6
 73
3
 74
0
 40
0
 40
0
 40
0
 40
1
 40
1
 40
1
 10
-156.265
 20
3.80272
 30
0
 10
-157.276
 20
2.35959
 30
0
 10
-157.15
 20
1.03244
 30
0
  0
SPLINE
  5
B50
330
A02
100
AcDbEntity
  8
ShapeString008
100
AcDbSpline
210
0
220
0
230
1
 70
8
 71
2
 72
6
 73
3
 74
0
 40
0
 40
0
 40
0
 40
1
 40
1
 40
1
 10
-154.444
 20
5.7021
 30
0
 10
-155.568
 20
4.79917
 30
0
 10
-156.265
 20
3.80272
 30
0
  0
SPLINE
  5
B51
330
A02
100
AcDbEntity
  8
ShapeString008
100
AcDbSpline
210
0
220
0
230
1
 70
8
 71
2
 72
6
 73
3
 74
0
 40
0
 40
0
 40
0
 40
1
 40
1
 40
1
 10
-151.785
 20
7.3938
 30
0
 10
-153.325
 20
6.59815
 30
0
 10
-154.444
 20
5.7021
 30
0
  0
LINE
  5
B52
330
A02
100
AcDbEntity
  8
ShapeString008
100
AcDbLine
 10
-154.863
 20
9.54952
 30
0
 11
-151.785
 21
7.3938
 31
0
  0
SPLINE
  5
B53
330
A02
100
AcDbEntity
  8
ShapeString008
100
AcDbSpline
210
0
220
0
230
1
 70
8
 71
2
 72
6
 73
3
 74
0
 40
0
 40
0
 40
0
 40
1
 40
1
 40
1
 10
-157.308
 20
7.46192
 30
0
 10
-156.2
 20
8.59096
 30
0
 10
-154.863
 20
9.54952
 30
0
  0
SPLINE
  5
B54
330
A02
100
AcDbEntity
  8
ShapeString008
100
AcDbSpline
210
0
220
0
230
1
 70
8
 71
2
 72
6
 73
3
 74
0
 40
0
 40
0
 40
0
 40
1
 40
1
 40
1
 10
-159.347
 20
5.01825
 30
0
 10
-158.428
 20
6.33082
 30
0
 10
-157.308
 20
7.46192
 30
0
  0
SPLINE
  5
B55
330
A02
100
AcDbEntity
  8
ShapeString008
100
AcDbSpline
210
0
220
0
230
1
 70
8
 71
2
 72
6
 73
3
 74
0
 40
0
 40
0
 40
0
 40
1
 40
1
 40
1
 10
-161.267
 20
-0.693422
 30
0
 10
-161.469
 20
1.98767
 30
0
 10
-159.347
 20
5.01825
 30
0
  0
SPLINE
  5
B56
330
A02
100
AcDbEntity
  8
ShapeString008
100
AcDbSpline
210
0
220
0
230
1
 70
8
 71
2
 72
6
 73
3
 74
0
 40
0
 40
0
 40
0
 40
1
 40
1
 40
1
 10
-158.585
 20
-5.1116
 30
0
 10
-161.059
 20
-3.37932
 30
0
 10
-161.267
 20
-0.693422
 30
0
  0
SPLINE
  5
B57
330
A02
100
AcDbEntity
  8
ShapeString008
100
AcDbSpline
210
0
220
0
230
1
 70
8
 71
2
 72
6
 73
3
 74
0
 40
0
 40
0
 40
0
 40
1
 40
1
 40
1
 10
-153.598
 20
-6.26829
 30
0
 10
-156.09
 20
-6.85831
 30
0
 10
-158.585
 20
-5.1116
 30
0
  0
SPLINE
  5
B58
330
A02
100
AcDbEntity
  8
ShapeString008
100
AcDbSpline
210
0
220
0
230
1
 70
8
 71
2
 72
6
 73
3
 74
0
 40
0
 40
0
 40
0
 40
1
 40
1
 40
1
 10
-149.138
 20
-2.86759
 30
0
 10
-151.106
 20
-5.67827
 30
0
 10
-153.598
 20
-6.26829
 30
0
  0
SPLINE
  5
B59
330
A02
100
AcDbEntity
  8
ShapeString008
100
AcDbSpline
210
0
220
0
230
1
 70
8
 71
2
 72
6
 73
3
 74
0
 40
0
 40
0
 40
0
 40
1
 40
1
 40
1
 10
-148.538
 20
-1.86425
 30
0
 10
-148.792
 20
-2.3728
 30
0
 10
-149.138
 20
-2.86759
 30
0
  0
SPLINE
  5
B5A
330
A02
100
AcDbEntity
  8
ShapeString008
100
AcDbSpline
210
0
220
0
230
1
 70
8
 71
2
 72
6
 73
3
 74
0
 40
0
 40
0
 40
0
 40
1
 40
1
 40
1
 10
-148.083
 20
-0.820342
 30
0
 10
-148.277
 20
-1.36051
 30
0
 10
-148.538
 20
-1.86425
 30
0
  0
LINE
  5
B5B
330
A02
100
AcDbEntity
  8
ShapeString008
100
AcDbLine
 10
-145.63
 20
-2.53818
 30
0
 11
-148.083
 21
-0.820342
 31
0
  0
LINE
  5
B5C
330
A02
100
AcDbEntity
  8
ShapeString008
100
AcDbLine
 10
-150.322
 20
-9.23846
 30
0
 11
-145.63
 21
-2.53818
 31
0
  0
LINE
  5
B5D
330
A02
100
AcDbEntity
  8
ShapeString008
100
AcDbLine
 10
-147.243
 20
-11.3942
 30
0
 11
-150.322
 21
-9.23846
 31
0
  0
LINE
  5
B5E
330
A02
100
AcDbEntity
  8
ShapeString009
100
AcDbLine
 10
-90.1858
 20
-24.7307
 30
0
 11
-93.6478
 21
-28.8566
 31
0
  0
LINE
  5
B5F
330
A02
100
AcDbEntity
  8
ShapeString009
100
AcDbLine
 10
-93.7546
 20
-11.9127
 30
0
 11
-90.1858
 21
-24.7307
 31
0
  0
LINE
  5
B60
330
A02
100
AcDbEntity
  8
ShapeString009
100
AcDbLine
 10
-96.8651
 20
-9.30271
 30
0
 11
-93.7546
 21
-11.9127
 31
0
  0
LINE
  5
B61
330
A02
100
AcDbEntity
  8
ShapeString009
100
AcDbLine
 10
-102.22
 20
-15.6843
 30
0
 11
-96.8651
 21
-9.30271
 31
0
  0
LINE
  5
B62
330
A02
100
AcDbEntity
  8
ShapeString009
100
AcDbLine
 10
-105.099
 20
-13.2684
 30
0
 11
-102.22
 21
-15.6843
 31
0
  0
LINE
  5
B63
330
A02
100
AcDbEntity
  8
ShapeString009
100
AcDbLine
 10
-108.043
 20
-16.7773
 30
0
 11
-105.099
 21
-13.2684
 31
0
  0
LINE
  5
B64
330
A02
100
AcDbEntity
  8
ShapeString009
100
AcDbLine
 10
-105.164
 20
-19.1932
 30
0
 11
-108.043
 21
-16.7773
 31
0
  0
LINE
  5
B65
330
A02
100
AcDbEntity
  8
ShapeString009
100
AcDbLine
 10
-106.89
 20
-21.2497
 30
0
 11
-105.164
 21
-19.1932
 31
0
  0
LINE
  5
B66
330
A02
100
AcDbEntity
  8
ShapeString009
100
AcDbLine
 10
-104.422
 20
-23.3204
 30
0
 11
-106.89
 21
-21.2497
 31
0
  0
LINE
  5
B67
330
A02
100
AcDbEntity
  8
ShapeString009
100
AcDbLine
 10
-102.696
 20
-21.2639
 30
0
 11
-104.422
 21
-23.3204
 31
0
  0
LINE
  5
B68
330
A02
100
AcDbEntity
  8
ShapeString009
100
AcDbLine
 10
-93.6478
 20
-28.8566
 30
0
 11
-102.696
 21
-21.2639
 31
0
  0
LINE
  5
B69
330
A02
100
AcDbEntity
  8
ShapeString009
100
AcDbLine
 10
-93.7497
 20
-22.7916
 30
0
 11
-96.3386
 21
-13.687
 31
0
  0
LINE
  5
B6A
330
A02
100
AcDbEntity
  8
ShapeString009
100
AcDbLine
 10
-99.752
 20
-17.755
 30
0
 11
-93.7497
 21
-22.7916
 31
0
  0
LINE
  5
B6B
330
A02
100
AcDbEntity
  8
ShapeString009
100
AcDbLine
 10
-96.3386
 20
-13.687
 30
0
 11
-99.752
 21
-17.755
 31
0
  0
SPLINE
  5
B6C
330
A02
100
AcDbEntity
  8
ShapeString009
100
AcDbSpline
210
0
220
0
230
1
 70
8
 71
2
 72
6
 73
3
 74
0
 40
0
 40
0
 40
0
 40
1
 40
1
 40
1
 10
-113.934
 20
-38.4023
 30
0
 10
-117.578
 20
-35.3448
 30
0
 10
-118.263
 20
-32.1415
 30
0
  0
SPLINE
  5
B6D
330
A02
100
AcDbEntity
  8
ShapeString009
100
AcDbSpline
210
0
220
0
230
1
 70
8
 71
2
 72
6
 73
3
 74
0
 40
0
 40
0
 40
0
 40
1
 40
1
 40
1
 10
-107.004
 20
-41.5892
 30
0
 10
-110.277
 20
-41.4707
 30
0
 10
-113.934
 20
-38.4023
 30
0
  0
SPLINE
  5
B6E
330
A02
100
AcDbEntity
  8
ShapeString009
100
AcDbSpline
210
0
220
0
230
1
 70
8
 71
2
 72
6
 73
3
 74
0
 40
0
 40
0
 40
0
 40
1
 40
1
 40
1
 10
-101.352
 20
-38.8736
 30
0
 10
-103.73
 20
-41.7077
 30
0
 10
-107.004
 20
-41.5892
 30
0
  0
SPLINE
  5
B6F
330
A02
100
AcDbEntity
  8
ShapeString009
100
AcDbSpline
210
0
220
0
230
1
 70
8
 71
2
 72
6
 73
3
 74
0
 40
0
 40
0
 40
0
 40
1
 40
1
 40
1
 10
-99.6485
 20
-32.8234
 30
0
 10
-98.9633
 20
-36.0267
 30
0
 10
-101.352
 20
-38.8736
 30
0
  0
SPLINE
  5
B70
330
A02
100
AcDbEntity
  8
ShapeString009
100
AcDbSpline
210
0
220
0
230
1
 70
8
 71
2
 72
6
 73
3
 74
0
 40
0
 40
0
 40
0
 40
1
 40
1
 40
1
 10
-103.99
 20
-26.5518
 30
0
 10
-100.334
 20
-29.6201
 30
0
 10
-99.6485
 20
-32.8234
 30
0
  0
SPLINE
  5
B71
330
A02
100
AcDbEntity
  8
ShapeString009
100
AcDbSpline
210
0
220
0
230
1
 70
8
 71
2
 72
6
 73
3
 74
0
 40
0
 40
0
 40
0
 40
1
 40
1
 40
1
 10
-110.908
 20
-23.3757
 30
0
 10
-107.634
 20
-23.4942
 30
0
 10
-103.99
 20
-26.5518
 30
0
  0
SPLINE
  5
B72
330
A02
100
AcDbEntity
  8
ShapeString009
100
AcDbSpline
210
0
220
0
230
1
 70
8
 71
2
 72
6
 73
3
 74
0
 40
0
 40
0
 40
0
 40
1
 40
1
 40
1
 10
-116.57
 20
-26.1042
 30
0
 10
-114.181
 20
-23.2572
 30
0
 10
-110.908
 20
-23.3757
 30
0
  0
SPLINE
  5
B73
330
A02
100
AcDbEntity
  8
ShapeString009
100
AcDbSpline
210
0
220
0
230
1
 70
8
 71
2
 72
6
 73
3
 74
0
 40
0
 40
0
 40
0
 40
1
 40
1
 40
1
 10
-118.263
 20
-32.1415
 30
0
 10
-118.948
 20
-28.9383
 30
0
 10
-116.57
 20
-26.1042
 30
0
  0
SPLINE
  5
B74
330
A02
100
AcDbEntity
  8
ShapeString009
100
AcDbSpline
210
0
220
0
230
1
 70
8
 71
2
 72
6
 73
3
 74
0
 40
0
 40
0
 40
0
 40
1
 40
1
 40
1
 10
-110.779
 20
-34.7202
 30
0
 10
-107.97
 20
-37.0767
 30
0
 10
-106.394
 20
-37.5342
 30
0
  0
SPLINE
  5
B75
330
A02
100
AcDbEntity
  8
ShapeString009
100
AcDbSpline
210
0
220
0
230
1
 70
8
 71
2
 72
6
 73
3
 74
0
 40
0
 40
0
 40
0
 40
1
 40
1
 40
1
 10
-114.358
 20
-30.8411
 30
0
 10
-113.619
 20
-32.3367
 30
0
 10
-110.779
 20
-34.7202
 30
0
  0
SPLINE
  5
B76
330
A02
100
AcDbEntity
  8
ShapeString009
100
AcDbSpline
210
0
220
0
230
1
 70
8
 71
2
 72
6
 73
3
 74
0
 40
0
 40
0
 40
0
 40
1
 40
1
 40
1
 10
-114.102
 20
-28.1749
 30
0
 10
-115.095
 20
-29.3574
 30
0
 10
-114.358
 20
-30.8411
 30
0
  0
SPLINE
  5
B77
330
A02
100
AcDbEntity
  8
ShapeString009
100
AcDbSpline
210
0
220
0
230
1
 70
8
 71
2
 72
6
 73
3
 74
0
 40
0
 40
0
 40
0
 40
1
 40
1
 40
1
 10
-111.505
 20
-27.4415
 30
0
 10
-113.099
 20
-26.9795
 30
0
 10
-114.102
 20
-28.1749
 30
0
  0
SPLINE
  5
B78
330
A02
100
AcDbEntity
  8
ShapeString009
100
AcDbSpline
210
0
220
0
230
1
 70
8
 71
2
 72
6
 73
3
 74
0
 40
0
 40
0
 40
0
 40
1
 40
1
 40
1
 10
-107.069
 20
-30.2987
 30
0
 10
-109.909
 20
-27.9152
 30
0
 10
-111.505
 20
-27.4415
 30
0
  0
SPLINE
  5
B79
330
A02
100
AcDbEntity
  8
ShapeString009
100
AcDbSpline
210
0
220
0
230
1
 70
8
 71
2
 72
6
 73
3
 74
0
 40
0
 40
0
 40
0
 40
1
 40
1
 40
1
 10
-103.536
 20
-34.1282
 30
0
 10
-104.26
 20
-32.6552
 30
0
 10
-107.069
 20
-30.2987
 30
0
  0
SPLINE
  5
B7A
330
A02
100
AcDbEntity
  8
ShapeString009
100
AcDbSpline
210
0
220
0
230
1
 70
8
 71
2
 72
6
 73
3
 74
0
 40
0
 40
0
 40
0
 40
1
 40
1
 40
1
 10
-103.82
 20
-36.8029
 30
0
 10
-102.817
 20
-35.6076
 30
0
 10
-103.536
 20
-34.1282
 30
0
  0
SPLINE
  5
B7B
330
A02
100
AcDbEntity
  8
ShapeString009
100
AcDbSpline
210
0
220
0
230
1
 70
8
 71
2
 72
6
 73
3
 74
0
 40
0
 40
0
 40
0
 40
1
 40
1
 40
1
 10
-106.394
 20
-37.5342
 30
0
 10
-104.823
 20
-37.9982
 30
0
 10
-103.82
 20
-36.8029
 30
0
  0
LINE
  5
B7C
330
A02
100
AcDbEntity
  8
ShapeString010
100
AcDbLine
 10
-49.8518
 20
-63.4276
 30
0
 11
-53.6602
 21
-67.2361
 31
0
  0
LINE
  5
B7D
330
A02
100
AcDbEntity
  8
ShapeString010
100
AcDbLine
 10
-52.2899
 20
-50.3474
 30
0
 11
-49.8518
 21
-63.4276
 31
0
  0
LINE
  5
B7E
330
A02
100
AcDbEntity
  8
ShapeString010
100
AcDbLine
 10
-55.161
 20
-47.4762
 30
0
 11
-52.2899
 21
-50.3474
 31
0
  0
LINE
  5
B7F
330
A02
100
AcDbEntity
  8
ShapeString010
100
AcDbLine
 10
-61.0516
 20
-53.3668
 30
0
 11
-55.161
 21
-47.4762
 31
0
  0
LINE
  5
B80
330
A02
100
AcDbEntity
  8
ShapeString010
100
AcDbLine
 10
-63.7092
 20
-50.7092
 30
0
 11
-61.0516
 21
-53.3668
 31
0
  0
LINE
  5
B81
330
A02
100
AcDbEntity
  8
ShapeString010
100
AcDbLine
 10
-66.9481
 20
-53.9481
 30
0
 11
-63.7092
 21
-50.7092
 31
0
  0
LINE
  5
B82
330
A02
100
AcDbEntity
  8
ShapeString010
100
AcDbLine
 10
-64.2906
 20
-56.6057
 30
0
 11
-66.9481
 21
-53.9481
 31
0
  0
LINE
  5
B83
330
A02
100
AcDbEntity
  8
ShapeString010
100
AcDbLine
 10
-66.1888
 20
-58.504
 30
0
 11
-64.2906
 21
-56.6057
 31
0
  0
LINE
  5
B84
330
A02
100
AcDbEntity
  8
ShapeString010
100
AcDbLine
 10
-63.9109
 20
-60.7819
 30
0
 11
-66.1888
 21
-58.504
 31
0
  0
LINE
  5
B85
330
A02
100
AcDbEntity
  8
ShapeString010
100
AcDbLine
 10
-62.0126
 20
-58.8836
 30
0
 11
-63.9109
 21
-60.7819
 31
0
  0
LINE
  5
B86
330
A02
100
AcDbEntity
  8
ShapeString010
100
AcDbLine
 10
-53.6602
 20
-67.2361
 30
0
 11
-62.0126
 21
-58.8836
 31
0
  0
LINE
  5
B87
330
A02
100
AcDbEntity
  8
ShapeString010
100
AcDbLine
 10
-53.2331
 20
-61.1853
 30
0
 11
-55.0187
 21
-51.8897
 31
0
  0
LINE
  5
B88
330
A02
100
AcDbEntity
  8
ShapeString010
100
AcDbLine
 10
-58.7737
 20
-55.6447
 30
0
 11
-53.2331
 21
-61.1853
 31
0
  0
LINE
  5
B89
330
A02
100
AcDbEntity
  8
ShapeString010
100
AcDbLine
 10
-55.0187
 20
-51.8897
 30
0
 11
-58.7737
 21
-55.6447
 31
0
  0
LINE
  5
B8A
330
A02
100
AcDbEntity
  8
ShapeString010
100
AcDbLine
 10
-58.1746
 20
-71.7504
 30
0
 11
-66.6871
 21
-80.263
 31
0
  0
LINE
  5
B8B
330
A02
100
AcDbEntity
  8
ShapeString010
100
AcDbLine
 10
-65.7676
 20
-64.1573
 30
0
 11
-58.1746
 21
-71.7504
 31
0
  0
SPLINE
  5
B8C
330
A02
100
AcDbEntity
  8
ShapeString010
100
AcDbSpline
210
0
220
0
230
1
 70
8
 71
2
 72
6
 73
3
 74
0
 40
0
 40
0
 40
0
 40
1
 40
1
 40
1
 10
-66.9956
 20
-66.5242
 30
0
 10
-66.3431
 20
-65.5039
 30
0
 10
-65.7676
 20
-64.1573
 30
0
  0
SPLINE
  5
B8D
330
A02
100
AcDbEntity
  8
ShapeString010
100
AcDbSpline
210
0
220
0
230
1
 70
8
 71
2
 72
6
 73
3
 74
0
 40
0
 40
0
 40
0
 40
1
 40
1
 40
1
 10
-68.3837
 20
-68.292
 30
0
 10
-67.6422
 20
-67.5505
 30
0
 10
-66.9956
 20
-66.5242
 30
0
  0
SPLINE
  5
B8E
330
A02
100
AcDbEntity
  8
ShapeString010
100
AcDbSpline
210
0
220
0
230
1
 70
8
 71
2
 72
6
 73
3
 74
0
 40
0
 40
0
 40
0
 40
1
 40
1
 40
1
 10
-70.9523
 20
-69.6386
 30
0
 10
-69.6294
 20
-69.5377
 30
0
 10
-68.3837
 20
-68.292
 30
0
  0
SPLINE
  5
B8F
330
A02
100
AcDbEntity
  8
ShapeString010
100
AcDbSpline
210
0
220
0
230
1
 70
8
 71
2
 72
6
 73
3
 74
0
 40
0
 40
0
 40
0
 40
1
 40
1
 40
1
 10
-73.337
 20
-68.6894
 30
0
 10
-72.2811
 20
-69.7453
 30
0
 10
-70.9523
 20
-69.6386
 30
0
  0
SPLINE
  5
B90
330
A02
100
AcDbEntity
  8
ShapeString010
100
AcDbSpline
210
0
220
0
230
1
 70
8
 71
2
 72
6
 73
3
 74
0
 40
0
 40
0
 40
0
 40
1
 40
1
 40
1
 10
-74.2862
 20
-66.3047
 30
0
 10
-74.387
 20
-67.6394
 30
0
 10
-73.337
 20
-68.6894
 30
0
  0
SPLINE
  5
B91
330
A02
100
AcDbEntity
  8
ShapeString010
100
AcDbSpline
210
0
220
0
230
1
 70
8
 71
2
 72
6
 73
3
 74
0
 40
0
 40
0
 40
0
 40
1
 40
1
 40
1
 10
-72.9336
 20
-63.7302
 30
0
 10
-74.1794
 20
-64.9759
 30
0
 10
-74.2862
 20
-66.3047
 30
0
  0
SPLINE
  5
B92
330
A02
100
AcDbEntity
  8
ShapeString010
100
AcDbSpline
210
0
220
0
230
1
 70
8
 71
2
 72
6
 73
3
 74
0
 40
0
 40
0
 40
0
 40
1
 40
1
 40
1
 10
-70.8099
 20
-62.176
 30
0
 10
-72.0735
 20
-62.87
 30
0
 10
-72.9336
 20
-63.7302
 30
0
  0
SPLINE
  5
B93
330
A02
100
AcDbEntity
  8
ShapeString010
100
AcDbSpline
210
0
220
0
230
1
 70
8
 71
2
 72
6
 73
3
 74
0
 40
0
 40
0
 40
0
 40
1
 40
1
 40
1
 10
-67.8973
 20
-60.9717
 30
0
 10
-69.5523
 20
-61.4878
 30
0
 10
-70.8099
 20
-62.176
 30
0
  0
LINE
  5
B94
330
A02
100
AcDbEntity
  8
ShapeString010
100
AcDbLine
 10
-70.5549
 20
-58.3142
 30
0
 11
-67.8973
 21
-60.9717
 31
0
  0
SPLINE
  5
B95
330
A02
100
AcDbEntity
  8
ShapeString010
100
AcDbSpline
210
0
220
0
230
1
 70
8
 71
2
 72
6
 73
3
 74
0
 40
0
 40
0
 40
0
 40
1
 40
1
 40
1
 10
-73.3251
 20
-59.9455
 30
0
 10
-72.0379
 20
-59.026
 30
0
 10
-70.5549
 20
-58.3142
 30
0
  0
SPLINE
  5
B96
330
A02
100
AcDbEntity
  8
ShapeString010
100
AcDbSpline
210
0
220
0
230
1
 70
8
 71
2
 72
6
 73
3
 74
0
 40
0
 40
0
 40
0
 40
1
 40
1
 40
1
 10
-75.7573
 20
-61.998
 30
0
 10
-74.6243
 20
-60.865
 30
0
 10
-73.3251
 20
-59.9455
 30
0
  0
SPLINE
  5
B97
330
A02
100
AcDbEntity
  8
ShapeString010
100
AcDbSpline
210
0
220
0
230
1
 70
8
 71
2
 72
6
 73
3
 74
0
 40
0
 40
0
 40
0
 40
1
 40
1
 40
1
 10
-78.6403
 20
-67.2894
 30
0
 10
-78.3734
 20
-64.6141
 30
0
 10
-75.7573
 20
-61.998
 30
0
  0
SPLINE
  5
B98
330
A02
100
AcDbEntity
  8
ShapeString010
100
AcDbSpline
210
0
220
0
230
1
 70
8
 71
2
 72
6
 73
3
 74
0
 40
0
 40
0
 40
0
 40
1
 40
1
 40
1
 10
-76.7658
 20
-72.1063
 30
0
 10
-78.9013
 20
-69.9708
 30
0
 10
-78.6403
 20
-67.2894
 30
0
  0
SPLINE
  5
B99
330
A02
100
AcDbEntity
  8
ShapeString010
100
AcDbSpline
210
0
220
0
230
1
 70
8
 71
2
 72
6
 73
3
 74
0
 40
0
 40
0
 40
0
 40
1
 40
1
 40
1
 10
-72.0557
 20
-74.1114
 30
0
 10
-74.6124
 20
-74.2597
 30
0
 10
-76.7658
 20
-72.1063
 30
0
  0
SPLINE
  5
B9A
330
A02
100
AcDbEntity
  8
ShapeString010
100
AcDbSpline
210
0
220
0
230
1
 70
8
 71
2
 72
6
 73
3
 74
0
 40
0
 40
0
 40
0
 40
1
 40
1
 40
1
 10
-67.0727
 20
-71.5368
 30
0
 10
-69.4989
 20
-73.9631
 30
0
 10
-72.0557
 20
-74.1114
 30
0
  0
SPLINE
  5
B9B
330
A02
100
AcDbEntity
  8
ShapeString010
100
AcDbSpline
210
0
220
0
230
1
 70
8
 71
2
 72
6
 73
3
 74
0
 40
0
 40
0
 40
0
 40
1
 40
1
 40
1
 10
-66.3075
 20
-70.6529
 30
0
 10
-66.6456
 20
-71.1097
 30
0
 10
-67.0727
 20
-71.5368
 30
0
  0
SPLINE
  5
B9C
330
A02
100
AcDbEntity
  8
ShapeString010
100
AcDbSpline
210
0
220
0
230
1
 70
8
 71
2
 72
6
 73
3
 74
0
 40
0
 40
0
 40
0
 40
1
 40
1
 40
1
 10
-65.6787
 20
-69.7038
 30
0
 10
-65.9634
 20
-70.2021
 30
0
 10
-66.3075
 20
-70.6529
 30
0
  0
LINE
  5
B9D
330
A02
100
AcDbEntity
  8
ShapeString010
100
AcDbLine
 10
-63.5609
 20
-71.8216
 30
0
 11
-65.6787
 21
-69.7038
 31
0
  0
LINE
  5
B9E
330
A02
100
AcDbEntity
  8
ShapeString010
100
AcDbLine
 10
-69.3447
 20
-77.6054
 30
0
 11
-63.5609
 21
-71.8216
 31
0
  0
LINE
  5
B9F
330
A02
100
AcDbEntity
  8
ShapeString010
100
AcDbLine
 10
-66.6871
 20
-80.263
 30
0
 11
-69.3447
 21
-77.6054
 31
0
  0
LINE
  5
BA0
330
A02
100
AcDbEntity
  8
ShapeString011
100
AcDbLine
 10
-8.01582
 20
-100.153
 30
0
 11
-17.2379
 21
-107.892
 31
0
  0
LINE
  5
BA1
330
A02
100
AcDbEntity
  8
ShapeString011
100
AcDbLine
 10
-14.9182
 20
-91.9274
 30
0
 11
-8.01582
 21
-100.153
 31
0
  0
SPLINE
  5
BA2
330
A02
100
AcDbEntity
  8
ShapeString011
100
AcDbSpline
210
0
220
0
230
1
 70
8
 71
2
 72
6
 73
3
 74
0
 40
0
 40
0
 40
0
 40
1
 40
1
 40
1
 10
-16.3478
 20
-94.1783
 30
0
 10
-15.6088
 20
-93.2188
 30
0
 10
-14.9182
 20
-91.9274
 30
0
  0
SPLINE
  5
BA3
330
A02
100
AcDbEntity
  8
ShapeString011
100
AcDbSpline
210
0
220
0
230
1
 70
8
 71
2
 72
6
 73
3
 74
0
 40
0
 40
0
 40
0
 40
1
 40
1
 40
1
 10
-17.8847
 20
-95.8184
 30
0
 10
-17.0814
 20
-95.1443
 30
0
 10
-16.3478
 20
-94.1783
 30
0
  0
SPLINE
  5
BA4
330
A02
100
AcDbEntity
  8
ShapeString011
100
AcDbSpline
210
0
220
0
230
1
 70
8
 71
2
 72
6
 73
3
 74
0
 40
0
 40
0
 40
0
 40
1
 40
1
 40
1
 10
-20.5609
 20
-96.936
 30
0
 10
-19.2343
 20
-96.9508
 30
0
 10
-17.8847
 20
-95.8184
 30
0
  0
SPLINE
  5
BA5
330
A02
100
AcDbEntity
  8
ShapeString011
100
AcDbSpline
210
0
220
0
230
1
 70
8
 71
2
 72
6
 73
3
 74
0
 40
0
 40
0
 40
0
 40
1
 40
1
 40
1
 10
-22.8538
 20
-95.7826
 30
0
 10
-21.8939
 20
-96.9265
 30
0
 10
-20.5609
 20
-96.936
 30
0
  0
SPLINE
  5
BA6
330
A02
100
AcDbEntity
  8
ShapeString011
100
AcDbSpline
210
0
220
0
230
1
 70
8
 71
2
 72
6
 73
3
 74
0
 40
0
 40
0
 40
0
 40
1
 40
1
 40
1
 10
-23.5915
 20
-93.3243
 30
0
 10
-23.8083
 20
-94.6451
 30
0
 10
-22.8538
 20
-95.7826
 30
0
  0
SPLINE
  5
BA7
330
A02
100
AcDbEntity
  8
ShapeString011
100
AcDbSpline
210
0
220
0
230
1
 70
8
 71
2
 72
6
 73
3
 74
0
 40
0
 40
0
 40
0
 40
1
 40
1
 40
1
 10
-22.0197
 20
-90.8774
 30
0
 10
-23.3693
 20
-92.0098
 30
0
 10
-23.5915
 20
-93.3243
 30
0
  0
SPLINE
  5
BA8
330
A02
100
AcDbEntity
  8
ShapeString011
100
AcDbSpline
210
0
220
0
230
1
 70
8
 71
2
 72
6
 73
3
 74
0
 40
0
 40
0
 40
0
 40
1
 40
1
 40
1
 10
-19.7687
 20
-89.5142
 30
0
 10
-21.0879
 20
-90.0955
 30
0
 10
-22.0197
 20
-90.8774
 30
0
  0
SPLINE
  5
BA9
330
A02
100
AcDbEntity
  8
ShapeString011
100
AcDbSpline
210
0
220
0
230
1
 70
8
 71
2
 72
6
 73
3
 74
0
 40
0
 40
0
 40
0
 40
1
 40
1
 40
1
 10
-16.7621
 20
-88.5684
 30
0
 10
-18.4559
 20
-88.9383
 30
0
 10
-19.7687
 20
-89.5142
 30
0
  0
LINE
  5
BAA
330
A02
100
AcDbEntity
  8
ShapeString011
100
AcDbLine
 10
-19.178
 20
-85.6893
 30
0
 11
-16.7621
 21
-88.5684
 31
0
  0
SPLINE
  5
BAB
330
A02
100
AcDbEntity
  8
ShapeString011
100
AcDbSpline
210
0
220
0
230
1
 70
8
 71
2
 72
6
 73
3
 74
0
 40
0
 40
0
 40
0
 40
1
 40
1
 40
1
 10
-22.0799
 20
-87.073
 30
0
 10
-20.7174
 20
-86.2692
 30
0
 10
-19.178
 20
-85.6893
 30
0
  0
SPLINE
  5
BAC
330
A02
100
AcDbEntity
  8
ShapeString011
100
AcDbSpline
210
0
220
0
230
1
 70
8
 71
2
 72
6
 73
3
 74
0
 40
0
 40
0
 40
0
 40
1
 40
1
 40
1
 10
-24.6817
 20
-88.9057
 30
0
 10
-23.4542
 20
-87.8757
 30
0
 10
-22.0799
 20
-87.073
 30
0
  0
SPLINE
  5
BAD
330
A02
100
AcDbEntity
  8
ShapeString011
100
AcDbSpline
210
0
220
0
230
1
 70
8
 71
2
 72
6
 73
3
 74
0
 40
0
 40
0
 40
0
 40
1
 40
1
 40
1
 10
-28.0149
 20
-93.9258
 30
0
 10
-27.5158
 20
-91.2838
 30
0
 10
-24.6817
 20
-88.9057
 30
0
  0
SPLINE
  5
BAE
330
A02
100
AcDbEntity
  8
ShapeString011
100
AcDbSpline
210
0
220
0
230
1
 70
8
 71
2
 72
6
 73
3
 74
0
 40
0
 40
0
 40
0
 40
1
 40
1
 40
1
 10
-26.5673
 20
-98.8877
 30
0
 10
-28.5086
 20
-96.5741
 30
0
 10
-28.0149
 20
-93.9258
 30
0
  0
SPLINE
  5
BAF
330
A02
100
AcDbEntity
  8
ShapeString011
100
AcDbSpline
210
0
220
0
230
1
 70
8
 71
2
 72
6
 73
3
 74
0
 40
0
 40
0
 40
0
 40
1
 40
1
 40
1
 10
-22.0499
 20
-101.296
 30
0
 10
-24.6098
 20
-101.221
 30
0
 10
-26.5673
 20
-98.8877
 30
0
  0
SPLINE
  5
BB0
330
A02
100
AcDbEntity
  8
ShapeString011
100
AcDbSpline
210
0
220
0
230
1
 70
8
 71
2
 72
6
 73
3
 74
0
 40
0
 40
0
 40
0
 40
1
 40
1
 40
1
 10
-16.8615
 20
-99.1652
 30
0
 10
-19.49
 20
-101.371
 30
0
 10
-22.0499
 20
-101.296
 30
0
  0
SPLINE
  5
BB1
330
A02
100
AcDbEntity
  8
ShapeString011
100
AcDbSpline
210
0
220
0
230
1
 70
8
 71
2
 72
6
 73
3
 74
0
 40
0
 40
0
 40
0
 40
1
 40
1
 40
1
 10
-16.0221
 20
-98.3513
 30
0
 10
-16.3988
 20
-98.7769
 30
0
 10
-16.8615
 20
-99.1652
 30
0
  0
SPLINE
  5
BB2
330
A02
100
AcDbEntity
  8
ShapeString011
100
AcDbSpline
210
0
220
0
230
1
 70
8
 71
2
 72
6
 73
3
 74
0
 40
0
 40
0
 40
0
 40
1
 40
1
 40
1
 10
-15.313
 20
-97.4606
 30
0
 10
-15.6401
 20
-97.9322
 30
0
 10
-16.0221
 20
-98.3513
 30
0
  0
LINE
  5
BB3
330
A02
100
AcDbEntity
  8
ShapeString011
100
AcDbLine
 10
-13.3879
 20
-99.7549
 30
0
 11
-15.313
 21
-97.4606
 31
0
  0
LINE
  5
BB4
330
A02
100
AcDbEntity
  8
ShapeString011
100
AcDbLine
 10
-19.6538
 20
-105.013
 30
0
 11
-13.3879
 21
-99.7549
 31
0
  0
LINE
  5
BB5
330
A02
100
AcDbEntity
  8
ShapeString011
100
AcDbLine
 10
-17.2379
 20
-107.892
 30
0
 11
-19.6538
 21
-105.013
 31
0
  0
SPLINE
  5
BB6
330
A02
100
AcDbEntity
  8
ShapeString011
100
AcDbSpline
210
0
220
0
230
1
 70
8
 71
2
 72
6
 73
3
 74
0
 40
0
 40
0
 40
0
 40
1
 40
1
 40
1
 10
-38.3339
 20
-113.317
 30
0
 10
-41.3915
 20
-109.673
 30
0
 10
-41.51
 20
-106.399
 30
0
  0
SPLINE
  5
BB7
330
A02
100
AcDbEntity
  8
ShapeString011
100
AcDbSpline
210
0
220
0
230
1
 70
8
 71
2
 72
6
 73
3
 74
0
 40
0
 40
0
 40
0
 40
1
 40
1
 40
1
 10
-32.0623
 20
-117.659
 30
0
 10
-35.2656
 20
-116.973
 30
0
 10
-38.3339
 20
-113.317
 30
0
  0
SPLINE
  5
BB8
330
A02
100
AcDbEntity
  8
ShapeString011
100
AcDbSpline
210
0
220
0
230
1
 70
8
 71
2
 72
6
 73
3
 74
0
 40
0
 40
0
 40
0
 40
1
 40
1
 40
1
 10
-26.0249
 20
-115.966
 30
0
 10
-28.859
 20
-118.344
 30
0
 10
-32.0623
 20
-117.659
 30
0
  0
SPLINE
  5
BB9
330
A02
100
AcDbEntity
  8
ShapeString011
100
AcDbSpline
210
0
220
0
230
1
 70
8
 71
2
 72
6
 73
3
 74
0
 40
0
 40
0
 40
0
 40
1
 40
1
 40
1
 10
-23.2965
 20
-110.303
 30
0
 10
-23.178
 20
-113.577
 30
0
 10
-26.0249
 20
-115.966
 30
0
  0
SPLINE
  5
BBA
330
A02
100
AcDbEntity
  8
ShapeString011
100
AcDbSpline
210
0
220
0
230
1
 70
8
 71
2
 72
6
 73
3
 74
0
 40
0
 40
0
 40
0
 40
1
 40
1
 40
1
 10
-26.4833
 20
-103.373
 30
0
 10
-23.415
 20
-107.03
 30
0
 10
-23.2965
 20
-110.303
 30
0
  0
SPLINE
  5
BBB
330
A02
100
AcDbEntity
  8
ShapeString011
100
AcDbSpline
210
0
220
0
230
1
 70
8
 71
2
 72
6
 73
3
 74
0
 40
0
 40
0
 40
0
 40
1
 40
1
 40
1
 10
-32.7442
 20
-99.044
 30
0
 10
-29.5409
 20
-99.7291
 30
0
 10
-26.4833
 20
-103.373
 30
0
  0
SPLINE
  5
BBC
330
A02
100
AcDbEntity
  8
ShapeString011
100
AcDbSpline
210
0
220
0
230
1
 70
8
 71
2
 72
6
 73
3
 74
0
 40
0
 40
0
 40
0
 40
1
 40
1
 40
1
 10
-38.7944
 20
-100.748
 30
0
 10
-35.9474
 20
-98.3588
 30
0
 10
-32.7442
 20
-99.044
 30
0
  0
SPLINE
  5
BBD
330
A02
100
AcDbEntity
  8
ShapeString011
100
AcDbSpline
210
0
220
0
230
1
 70
8
 71
2
 72
6
 73
3
 74
0
 40
0
 40
0
 40
0
 40
1
 40
1
 40
1
 10
-41.51
 20
-106.399
 30
0
 10
-41.6285
 20
-103.126
 30
0
 10
-38.7944
 20
-100.748
 30
0
  0
SPLINE
  5
BBE
330
A02
100
AcDbEntity
  8
ShapeString011
100
AcDbSpline
210
0
220
0
230
1
 70
8
 71
2
 72
6
 73
3
 74
0
 40
0
 40
0
 40
0
 40
1
 40
1
 40
1
 10
-34.587
 20
-110.238
 30
0
 10
-32.2305
 20
-113.047
 30
0
 10
-30.7575
 20
-113.771
 30
0
  0
SPLINE
  5
BBF
330
A02
100
AcDbEntity
  8
ShapeString011
100
AcDbSpline
210
0
220
0
230
1
 70
8
 71
2
 72
6
 73
3
 74
0
 40
0
 40
0
 40
0
 40
1
 40
1
 40
1
 10
-37.4378
 20
-105.797
 30
0
 10
-36.9705
 20
-107.398
 30
0
 10
-34.587
 20
-110.238
 30
0
  0
SPLINE
  5
BC0
330
A02
100
AcDbEntity
  8
ShapeString011
100
AcDbSpline
210
0
220
0
230
1
 70
8
 71
2
 72
6
 73
3
 74
0
 40
0
 40
0
 40
0
 40
1
 40
1
 40
1
 10
-36.7237
 20
-103.215
 30
0
 10
-37.9062
 20
-104.208
 30
0
 10
-37.4378
 20
-105.797
 30
0
  0
SPLINE
  5
BC1
330
A02
100
AcDbEntity
  8
ShapeString011
100
AcDbSpline
210
0
220
0
230
1
 70
8
 71
2
 72
6
 73
3
 74
0
 40
0
 40
0
 40
0
 40
1
 40
1
 40
1
 10
-34.0382
 20
-102.944
 30
0
 10
-35.5283
 20
-102.212
 30
0
 10
-36.7237
 20
-103.215
 30
0
  0
SPLINE
  5
BC2
330
A02
100
AcDbEntity
  8
ShapeString011
100
AcDbSpline
210
0
220
0
230
1
 70
8
 71
2
 72
6
 73
3
 74
0
 40
0
 40
0
 40
0
 40
1
 40
1
 40
1
 10
-30.1655
 20
-106.528
 30
0
 10
-32.549
 20
-103.688
 30
0
 10
-34.0382
 20
-102.944
 30
0
  0
SPLINE
  5
BC3
330
A02
100
AcDbEntity
  8
ShapeString011
100
AcDbSpline
210
0
220
0
230
1
 70
8
 71
2
 72
6
 73
3
 74
0
 40
0
 40
0
 40
0
 40
1
 40
1
 40
1
 10
-27.3514
 20
-110.913
 30
0
 10
-27.809
 20
-109.337
 30
0
 10
-30.1655
 20
-106.528
 30
0
  0
SPLINE
  5
BC4
330
A02
100
AcDbEntity
  8
ShapeString011
100
AcDbSpline
210
0
220
0
230
1
 70
8
 71
2
 72
6
 73
3
 74
0
 40
0
 40
0
 40
0
 40
1
 40
1
 40
1
 10
-28.0956
 20
-113.498
 30
0
 10
-26.9003
 20
-112.495
 30
0
 10
-27.3514
 20
-110.913
 30
0
  0
SPLINE
  5
BC5
330
A02
100
AcDbEntity
  8
ShapeString011
100
AcDbSpline
210
0
220
0
230
1
 70
8
 71
2
 72
6
 73
3
 74
0
 40
0
 40
0
 40
0
 40
1
 40
1
 40
1
 10
-30.7575
 20
-113.771
 30
0
 10
-29.291
 20
-114.501
 30
0
 10
-28.0956
 20
-113.498
 30
0
  0
LINE
  5
BC6
330
A02
100
AcDbEntity
  8
Line004
100
AcDbLine
 10
-500
 20
50
 30
0
 11
-500
 21
0
 31
0
  0
LINE
  5
BC7
330
A02
100
AcDbEntity
  8
Array002
100
AcDbLine
 10
-500
 20
50
 30
0
 11
-500
 21
0
 31
0
  0
LINE
  5
BC8
330
A02
100
AcDbEntity
  8
Array002
100
AcDbLine
 10
-495.2
 20
49.9791
 30
0
 11
-495.637
 21
-0.0190385
 31
0
  0
LINE
  5
BC9
330
A02
100
AcDbEntity
  8
Array002
100
AcDbLine
 10
-490.401
 20
49.9162
 30
0
 11
-491.274
 21
-0.0761524
 31
0
  0
LINE
  5
BCA
330
A02
100
AcDbEntity
  8
Array002
100
AcDbLine
 10
-485.603
 20
49.8115
 30
0
 11
-486.912
 21
-0.171338
 31
0
  0
LINE
  5
BCB
330
A02
100
AcDbEntity
  8
Array002
100
AcDbLine
 10
-480.805
 20
49.665
 30
0
 11
-482.55
 21
-0.304586
 31
0
  0
LINE
  5
BCC
330
A02
100
AcDbEntity
  8
Array002
100
AcDbLine
 10
-476.009
 20
49.4765
 30
0
 11
-478.19
 21
-0.475889
 31
0
  0
LINE
  5
BCD
330
A02
100
AcDbEntity
  8
Array002
100
AcDbLine
 10
-471.215
 20
49.2462
 30
0
 11
-473.832
 21
-0.685233
 31
0
  0
LINE
  5
BCE
330
A02
100
AcDbEntity
  8
Array002
100
AcDbLine
 10
-466.423
 20
48.9741
 30
0
 11
-469.476
 21
-0.932601
 31
0
  0
LINE
  5
BCF
330
A02
100
AcDbEntity
  8
Array002
100
AcDbLine
 10
-461.634
 20
48.6602
 30
0
 11
-465.122
 21
-1.21797
 31
0
  0
LINE
  5
BD0
330
A02
100
AcDbEntity
  8
Array002
100
AcDbLine
 10
-456.847
 20
48.3045
 30
0
 11
-460.77
 21
-1.54133
 31
0
  0
LINE
  5
BD1
330
A02
100
AcDbEntity
  8
Array002
100
AcDbLine
 10
-452.064
 20
47.9071
 30
0
 11
-456.422
 21
-1.90265
 31
0
  0
LINE
  5
BD2
330
A02
100
AcDbEntity
  8
Array002
100
AcDbLine
 10
-447.285
 20
47.4679
 30
0
 11
-452.077
 21
-2.3019
 31
0
  0
LINE
  5
BD3
330
A02
100
AcDbEntity
  8
Array002
100
AcDbLine
 10
-442.509
 20
46.987
 30
0
 11
-447.736
 21
-2.73905
 31
0
  0
LINE
  5
BD4
330
A02
100
AcDbEntity
  8
Array002
100
AcDbLine
 10
-437.738
 20
46.4645
 30
0
 11
-443.398
 21
-3.21407
 31
0
  0
LINE
  5
BD5
330
A02
100
AcDbEntity
  8
Array002
100
AcDbLine
 10
-432.972
 20
45.9004
 30
0
 11
-439.065
 21
-3.72692
 31
0
  0
LINE
  5
BD6
330
A02
100
AcDbEntity
  8
Array002
100
AcDbLine
 10
-428.211
 20
45.2947
 30
0
 11
-434.737
 21
-4.27757
 31
0
  0
LINE
  5
BD7
330
A02
100
AcDbEntity
  8
Array002
100
AcDbLine
 10
-423.455
 20
44.6474
 30
0
 11
-430.413
 21
-4.86597
 31
0
  0
LINE
  5
BD8
330
A02
100
AcDbEntity
  8
Array002
100
AcDbLine
 10
-418.705
 20
43.9587
 30
0
 11
-426.095
 21
-5.49207
 31
0
  0
LINE
  5
BD9
330
A02
100
AcDbEntity
  8
Array002
100
AcDbLine
 10
-413.961
 20
43.2286
 30
0
 11
-421.783
 21
-6.15583
 31
0
  0
LINE
  5
BDA
330
A02
100
AcDbEntity
  8
Array002
100
AcDbLine
 10
-409.224
 20
42.4571
 30
0
 11
-417.476
 21
-6.8572
 31
0
  0
LINE
  5
BDB
330
A02
100
AcDbEntity
  8
Array002
100
AcDbLine
 10
-404.494
 20
41.6443
 30
0
 11
-413.176
 21
-7.59612
 31
0
  0
LINE
  5
BDC
330
A02
100
AcDbEntity
  8
Array002
100
AcDbLine
 10
-399.77
 20
40.7902
 30
0
 11
-408.882
 21
-8.37255
 31
0
  0
LINE
  5
BDD
330
A02
100
AcDbEntity
  8
Array002
100
AcDbLine
 10
-395.055
 20
39.895
 30
0
 11
-404.596
 21
-9.18641
 31
0
  0
LINE
  5
BDE
330
A02
100
AcDbEntity
  8
Array002
100
AcDbLine
 10
-390.348
 20
38.9586
 30
0
 11
-400.316
 21
-10.0376
 31
0
  0
LINE
  5
BDF
330
A02
100
AcDbEntity
  8
Array002
100
AcDbLine
 10
-385.649
 20
37.9812
 30
0
 11
-396.044
 21
-10.9262
 31
0
  0
LINE
  5
BE0
330
A02
100
AcDbEntity
  8
Array002
100
AcDbLine
 10
-380.958
 20
36.9628
 30
0
 11
-391.78
 21
-11.852
 31
0
  0
LINE
  5
BE1
330
A02
100
AcDbEntity
  8
Array002
100
AcDbLine
 10
-376.277
 20
35.9035
 30
0
 11
-387.524
 21
-12.815
 31
0
  0
LINE
  5
BE2
330
A02
100
AcDbEntity
  8
Array002
100
AcDbLine
 10
-371.605
 20
34.8035
 30
0
 11
-383.277
 21
-13.815
 31
0
  0
LINE
  5
BE3
330
A02
100
AcDbEntity
  8
Array002
100
AcDbLine
 10
-366.943
 20
33.6626
 30
0
 11
-379.039
 21
-14.8521
 31
0
  0
LINE
  5
BE4
330
A02
100
AcDbEntity
  8
Array002
100
AcDbLine
 10
-362.291
 20
32.4812
 30
0
 11
-374.81
 21
-15.9262
 31
0
  0
LINE
  5
BE5
330
A02
100
AcDbEntity
  8
Array002
100
AcDbLine
 10
-357.65
 20
31.2592
 30
0
 11
-370.59
 21
-17.0371
 31
0
  0
LINE
  5
BE6
330
A02
100
AcDbEntity
  8
Array002
100
AcDbLine
 10
-353.019
 20
29.9967
 30
0
 11
-366.381
 21
-18.1848
 31
0
  0
LINE
  5
BE7
330
A02
100
AcDbEntity
  8
Array002
100
AcDbLine
 10
-348.399
 20
28.6939
 30
0
 11
-362.181
 21
-19.3692
 31
0
  0
LINE
  5
BE8
330
A02
100
AcDbEntity
  8
Array002
100
AcDbLine
 10
-343.792
 20
27.3509
 30
0
 11
-357.992
 21
-20.5901
 31
0
  0
LINE
  5
BE9
330
A02
100
AcDbEntity
  8
Array002
100
AcDbLine
 10
-339.196
 20
25.9676
 30
0
 11
-353.814
 21
-21.8476
 31
0
  0
LINE
  5
BEA
330
A02
100
AcDbEntity
  8
Array002
100
AcDbLine
 10
-334.612
 20
24.5443
 30
0
 11
-349.647
 21
-23.1415
 31
0
  0
LINE
  5
BEB
330
A02
100
AcDbEntity
  8
Array002
100
AcDbLine
 10
-330.041
 20
23.0811
 30
0
 11
-345.492
 21
-24.4717
 31
0
  0
LINE
  5
BEC
330
A02
100
AcDbEntity
  8
Array002
100
AcDbLine
 10
-325.482
 20
21.578
 30
0
 11
-341.348
 21
-25.8382
 31
0
  0
LINE
  5
BED
330
A02
100
AcDbEntity
  8
Array002
100
AcDbLine
 10
-320.938
 20
20.0352
 30
0
 11
-337.216
 21
-27.2407
 31
0
  0
LINE
  5
BEE
330
A02
100
AcDbEntity
  8
Array002
100
AcDbLine
 10
-316.406
 20
18.4528
 30
0
 11
-333.097
 21
-28.6793
 31
0
  0
LINE
  5
BEF
330
A02
100
AcDbEntity
  8
Array002
100
AcDbLine
 10
-311.889
 20
16.8309
 30
0
 11
-328.99
 21
-30.1537
 31
0
  0
LINE
  5
BF0
330
A02
100
AcDbEntity
  8
Array002
100
AcDbLine
 10
-307.386
 20
15.1697
 30
0
 11
-324.896
 21
-31.6639
 31
0
  0
LINE
  5
BF1
330
A02
100
AcDbEntity
  8
Array002
100
AcDbLine
 10
-302.898
 20
13.4692
 30
0
 11
-320.816
 21
-33.2098
 31
0
  0
LINE
  5
BF2
330
A02
100
AcDbEntity
  8
Array002
100
AcDbLine
 10
-298.424
 20
11.7297
 30
0
 11
-316.749
 21
-34.7912
 31
0
  0
LINE
  5
BF3
330
A02
100
AcDbEntity
  8
Array002
100
AcDbLine
 10
-293.966
 20
9.95112
 30
0
 11
-312.697
 21
-36.4081
 31
0
  0
LINE
  5
BF4
330
A02
100
AcDbEntity
  8
Array002
100
AcDbLine
 10
-289.524
 20
8.13374
 30
0
 11
-308.658
 21
-38.0602
 31
0
  0
LINE
  5
BF5
330
A02
100
AcDbEntity
  8
Array002
100
AcDbLine
 10
-285.098
 20
6.27767
 30
0
 11
-304.634
 21
-39.7476
 31
0
  0
LINE
  5
BF6
330
A02
100
AcDbEntity
  8
Array002
100
AcDbLine
 10
-280.688
 20
4.38304
 30
0
 11
-300.625
 21
-41.47
 31
0
  0
LINE
  5
BF7
330
A02
100
AcDbEntity
  8
Array002
100
AcDbLine
 10
-276.295
 20
2.45
 30
0
 11
-296.632
 21
-43.2273
 31
0
  0
LINE
  5
BF8
330
A02
100
AcDbEntity
  8
Array002
100
AcDbLine
 10
-271.919
 20
0.478699
 30
0
 11
-292.653
 21
-45.0194
 31
0
  0
LINE
  5
BF9
330
A02
100
AcDbEntity
  8
Array002
100
AcDbLine
 10
-267.56
 20
-1.53072
 30
0
 11
-288.691
 21
-46.8461
 31
0
  0
LINE
  5
BFA
330
A02
100
AcDbEntity
  8
Array002
100
AcDbLine
 10
-263.219
 20
-3.57809
 30
0
 11
-284.744
 21
-48.7074
 31
0
  0
LINE
  5
BFB
330
A02
100
AcDbEntity
  8
Array002
100
AcDbLine
 10
-258.896
 20
-5.66327
 30
0
 11
-280.814
 21
-50.603
 31
0
  0
LINE
  5
BFC
330
A02
100
AcDbEntity
  8
Array002
100
AcDbLine
 10
-254.591
 20
-7.7861
 30
0
 11
-276.901
 21
-52.5328
 31
0
  0
LINE
  5
BFD
330
A02
100
AcDbEntity
  8
Array002
100
AcDbLine
 10
-250.305
 20
-9.94641
 30
0
 11
-273.005
 21
-54.4967
 31
0
  0
LINE
  5
BFE
330
A02
100
AcDbEntity
  8
Array002
100
AcDbLine
 10
-246.038
 20
-12.144
 30
0
 11
-269.126
 21
-56.4946
 31
0
  0
LINE
  5
BFF
330
A02
100
AcDbEntity
  8
Array002
100
AcDbLine
 10
-241.791
 20
-14.3788
 30
0
 11
-265.264
 21
-58.5262
 31
0
  0
LINE
  5
C00
330
A02
100
AcDbEntity
  8
Array002
100
AcDbLine
 10
-237.563
 20
-16.6506
 30
0
 11
-261.421
 21
-60.5914
 31
0
  0
LINE
  5
C01
330
A02
100
AcDbEntity
  8
Array002
100
AcDbLine
 10
-233.355
 20
-18.9592
 30
0
 11
-257.595
 21
-62.6901
 31
0
  0
LINE
  5
C02
330
A02
100
AcDbEntity
  8
Array002
100
AcDbLine
 10
-229.167
 20
-21.3044
 30
0
 11
-253.788
 21
-64.8222
 31
0
  0
LINE
  5
C03
330
A02
100
AcDbEntity
  8
Array002
100
AcDbLine
 10
-225
 20
-23.686
 30
0
 11
-250
 21
-66.9873
 31
0
  0
LINE
  5
C04
330
A02
100
AcDbEntity
  8
Array002
100
AcDbLine
 10
-220.854
 20
-26.104
 30
0
 11
-246.231
 21
-69.1854
 31
0
  0
LINE
  5
C05
330
A02
100
AcDbEntity
  8
Array002
100
AcDbLine
 10
-216.729
 20
-28.558
 30
0
 11
-242.481
 21
-71.4163
 31
0
  0
LINE
  5
C06
330
A02
100
AcDbEntity
  8
Array002
100
AcDbLine
 10
-212.626
 20
-31.0479
 30
0
 11
-238.751
 21
-73.6799
 31
0
  0
LINE
  5
C07
330
A02
100
AcDbEntity
  8
Array002
100
AcDbLine
 10
-208.544
 20
-33.5735
 30
0
 11
-235.04
 21
-75.976
 31
0
  0
LINE
  5
C08
330
A02
100
AcDbEntity
  8
Array002
100
AcDbLine
 10
-204.485
 20
-36.1347
 30
0
 11
-231.35
 21
-78.3043
 31
0
  0
LINE
  5
C09
330
A02
100
AcDbEntity
  8
Array002
100
AcDbLine
 10
-200.449
 20
-38.7312
 30
0
 11
-227.68
 21
-80.6647
 31
0
  0
LINE
  5
C0A
330
A02
100
AcDbEntity
  8
Array002
100
AcDbLine
 10
-196.435
 20
-41.3628
 30
0
 11
-224.032
 21
-83.0571
 31
0
  0
LINE
  5
C0B
330
A02
100
AcDbEntity
  8
Array002
100
AcDbLine
 10
-192.444
 20
-44.0293
 30
0
 11
-220.404
 21
-85.4812
 31
0
  0
LINE
  5
C0C
330
A02
100
AcDbEntity
  8
Array002
100
AcDbLine
 10
-188.477
 20
-46.7306
 30
0
 11
-216.797
 21
-87.9369
 31
0
  0
LINE
  5
C0D
330
A02
100
AcDbEntity
  8
Array002
100
AcDbLine
 10
-184.533
 20
-49.4664
 30
0
 11
-213.212
 21
-90.424
 31
0
  0
LINE
  5
C0E
330
A02
100
AcDbEntity
  8
Array002
100
AcDbLine
 10
-180.613
 20
-52.2365
 30
0
 11
-209.649
 21
-92.9422
 31
0
  0
LINE
  5
C0F
330
A02
100
AcDbEntity
  8
Array002
100
AcDbLine
 10
-176.718
 20
-55.0407
 30
0
 11
-206.107
 21
-95.4915
 31
0
  0
LINE
  5
C10
330
A02
100
AcDbEntity
  8
Array002
100
AcDbLine
 10
-172.847
 20
-57.8787
 30
0
 11
-202.589
 21
-98.0716
 31
0
  0
LINE
  5
C11
330
A02
100
AcDbEntity
  8
Array002
100
AcDbLine
 10
-169.002
 20
-60.7505
 30
0
 11
-199.092
 21
-100.682
 31
0
  0
LINE
  5
C12
330
A02
100
AcDbEntity
  8
Array002
100
AcDbLine
 10
-165.181
 20
-63.6557
 30
0
 11
-195.619
 21
-103.323
 31
0
  0
LINE
  5
C13
330
A02
100
AcDbEntity
  8
Array002
100
AcDbLine
 10
-161.386
 20
-66.5941
 30
0
 11
-192.169
 21
-105.995
 31
0
  0
LINE
  5
C14
330
A02
100
AcDbEntity
  8
Array002
100
AcDbLine
 10
-157.617
 20
-69.5655
 30
0
 11
-188.743
 21
-108.696
 31
0
  0
LINE
  5
C15
330
A02
100
AcDbEntity
  8
Array002
100
AcDbLine
 10
-153.874
 20
-72.5697
 30
0
 11
-185.34
 21
-111.427
 31
0
  0
LINE
  5
C16
330
A02
100
AcDbEntity
  8
Array002
100
AcDbLine
 10
-150.157
 20
-75.6065
 30
0
 11
-181.961
 21
-114.188
 31
0
  0
LINE
  5
C17
330
A02
100
AcDbEntity
  8
Array002
100
AcDbLine
 10
-146.467
 20
-78.6756
 30
0
 11
-178.606
 21
-116.978
 31
0
  0
LINE
  5
C18
330
A02
100
AcDbEntity
  8
Array002
100
AcDbLine
 10
-142.804
 20
-81.7767
 30
0
 11
-175.276
 21
-119.797
 31
0
  0
LINE
  5
C19
330
A02
100
AcDbEntity
  8
Array002
100
AcDbLine
 10
-139.168
 20
-84.9097
 30
0
 11
-171.97
 21
-122.645
 31
0
  0
LINE
  5
C1A
330
A02
100
AcDbEntity
  8
Array002
100
AcDbLine
 10
-135.559
 20
-88.0744
 30
0
 11
-168.69
 21
-125.522
 31
0
  0
LINE
  5
C1B
330
A02
100
AcDbEntity
  8
Array002
100
AcDbLine
 10
-131.978
 20
-91.2703
 30
0
 11
-165.435
 21
-128.428
 31
0
  0
LINE
  5
C1C
330
A02
100
AcDbEntity
  8
Array002
100
AcDbLine
 10
-128.425
 20
-94.4975
 30
0
 11
-162.205
 21
-131.361
 31
0
  0
LINE
  5
C1D
330
A02
100
AcDbEntity
  8
Array002
100
AcDbLine
 10
-124.901
 20
-97.7555
 30
0
 11
-159.001
 21
-134.323
 31
0
  0
LINE
  5
C1E
330
A02
100
AcDbEntity
  8
Array002
100
AcDbLine
 10
-121.405
 20
-101.044
 30
0
 11
-155.823
 21
-137.313
 31
0
  0
LINE
  5
C1F
330
A02
100
AcDbEntity
  8
Array002
100
AcDbLine
 10
-117.938
 20
-104.363
 30
0
 11
-152.671
 21
-140.33
 31
0
  0
LINE
  5
C20
330
A02
100
AcDbEntity
  8
Array002
100
AcDbLine
 10
-114.5
 20
-107.712
 30
0
 11
-149.545
 21
-143.375
 31
0
  0
LINE
  5
C21
330
A02
100
AcDbEntity
  8
Array002
100
AcDbLine
 10
-111.091
 20
-111.091
 30
0
 11
-146.447
 21
-146.447
 31
0
  0
LINE
  5
C22
330
A02
100
AcDbEntity
  8
Array002
100
AcDbLine
 10
-107.712
 20
-114.5
 30
0
 11
-143.375
 21
-149.545
 31
0
  0
LINE
  5
C23
330
A02
100
AcDbEntity
  8
Array002
100
AcDbLine
 10
-104.363
 20
-117.938
 30
0
 11
-140.33
 21
-152.671
 31
0
  0
LINE
  5
C24
330
A02
100
AcDbEntity
  8
Array002
100
AcDbLine
 10
-101.044
 20
-121.405
 30
0
 11
-137.313
 21
-155.823
 31
0
  0
LINE
  5
C25
330
A02
100
AcDbEntity
  8
Array002
100
AcDbLine
 10
-97.7555
 20
-124.901
 30
0
 11
-134.323
 21
-159.001
 31
0
  0
LINE
  5
C26
330
A02
100
AcDbEntity
  8
Array002
100
AcDbLine
 10
-94.4975
 20
-128.425
 30
0
 11
-131.361
 21
-162.205
 31
0
  0
LINE
  5
C27
330
A02
100
AcDbEntity
  8
Array002
100
AcDbLine
 10
-91.2703
 20
-131.978
 30
0
 11
-128.428
 21
-165.435
 31
0
  0
LINE
  5
C28
330
A02
100
AcDbEntity
  8
Array002
100
AcDbLine
 10
-88.0744
 20
-135.559
 30
0
 11
-125.522
 21
-168.69
 31
0
  0
LINE
  5
C29
330
A02
100
AcDbEntity
  8
Array002
100
AcDbLine
 10
-84.9097
 20
-139.168
 30
0
 11
-122.645
 21
-171.97
 31
0
  0
LINE
  5
C2A
330
A02
100
AcDbEntity
  8
Array002
100
AcDbLine
 10
-81.7767
 20
-142.804
 30
0
 11
-119.797
 21
-175.276
 31
0
  0
LINE
  5
C2B
330
A02
100
AcDbEntity
  8
Array002
100
AcDbLine
 10
-78.6756
 20
-146.467
 30
0
 11
-116.978
 21
-178.606
 31
0
  0
ARC
  5
C2C
330
A02
100
AcDbEntity
  8
Arc001
100
AcDbCircle
 10
-500
 20
-500
 30
0
 40
650
100
AcDbArc
 50
35
 51
95
  0
LINE
  5
C2D
330
A02
100
AcDbEntity
  8
Line005
100
AcDbLine
 10
-542.706
 20
-11.8646
 30
0
 11
-556.651
 21
147.527
 31
0
  0
LINE
  5
C2E
330
A02
100
AcDbEntity
  8
Line006
100
AcDbLine
 10
-98.6155
 20
-218.948
 30
0
 11
32.4488
 21
-127.175
 31
0
  0
ENDSEC
  0
SECTION
  2
OBJECTS
  0
DICTIONARY
  5
F000
330
0
100
AcDbDictionary
  3
ACAD_GROUP
350
F001
  0
DICTIONARY
  5
F001
330
F000
100
AcDbDictionary
  0
ENDSEC
  0
EOF